M48
;Layer_Color=9474304
;FILE_FORMAT=2:4
INCH,LZ
;TYPE=PLATED
T1F00S00C0.0118
T2F00S00C0.0157
T3F00S00C0.0310
T4F00S00C0.0354
T5F00S00C0.0394
T6F00S00C0.0433
T7F00S00C0.0450
T8F00S00C0.0472
T9F00S00C0.0500
T10F00S00C0.1575
%
T01
X017551Y006003
X017912Y005642
Y006364
X017551Y006725
X017912Y007087
X018635
X018274Y006725
X018635Y006364
X018996Y006725
Y006003
X018274
X018635Y005642
T02
X006594Y006791
X010433Y00561
Y005217
X011516Y006102
X011319Y007283
X011713Y008268
X014468Y010433
X015157Y012795
X013583
X012795Y012697
X010138Y013386
X01437Y014567
X01378Y003445
X022146Y00374
X023228Y004331
X022146Y005906
X022835Y007972
X021555Y011024
X020079
X020571Y011909
X022441Y012795
X021949Y013681
X021457Y015059
X016339Y015157
X016634Y014567
X016043Y012402
X022638Y028248
T03
X000679Y000787
X002559
Y003497
X000679
X004518Y008117
X006398
Y010827
X004518
X010718Y01076
X012598
Y00805
X010718
X000886Y028004
Y031004
T04
X022835Y009417
Y010417
Y011417
T05
X00128Y013071
X008366
X006004Y026299
X003642
X004368Y029911
X005868Y029931
X007874Y029921
X010827
T06
X006776Y000689
X007776
X008776
X002461Y008449
Y009449
T07
X017323Y021752
X019685Y020965
X022047Y021752
X022123Y026555
X017323
X015135
X010335
Y021752
X012697Y020965
X015059Y021752
T08
X001248Y033394
X003248
X005248
T09
X014921Y033819
X016921
X019732Y033976
X021732
T10
X011811Y002756
Y03622
M30
