G04*
G04 #@! TF.GenerationSoftware,Altium Limited,Altium Designer,21.3.2 (30)*
G04*
G04 Layer_Color=255*
%FSTAX24Y24*%
%MOIN*%
G70*
G04*
G04 #@! TF.SameCoordinates,FE128C83-0F67-4140-98D3-9062B7FE4468*
G04*
G04*
G04 #@! TF.FilePolarity,Positive*
G04*
G01*
G75*
%ADD24R,0.0354X0.0472*%
%ADD67C,0.0591*%
%ADD68R,0.0591X0.0591*%
%ADD69C,0.0787*%
G04:AMPARAMS|DCode=70|XSize=98.4mil|YSize=118.1mil|CornerRadius=0mil|HoleSize=0mil|Usage=FLASHONLY|Rotation=180.000|XOffset=0mil|YOffset=0mil|HoleType=Round|Shape=Octagon|*
%AMOCTAGOND70*
4,1,8,0.0246,-0.0591,-0.0246,-0.0591,-0.0492,-0.0344,-0.0492,0.0344,-0.0246,0.0591,0.0246,0.0591,0.0492,0.0344,0.0492,-0.0344,0.0246,-0.0591,0.0*
%
%ADD70OCTAGOND70*%

%ADD71O,0.0750X0.0800*%
%ADD72C,0.0630*%
%ADD73R,0.0630X0.0630*%
%ADD74C,0.0984*%
%ADD75R,0.0630X0.0630*%
%ADD76C,0.1100*%
%ADD77C,0.1200*%
%ADD78C,0.0750*%
%ADD79C,0.0236*%
G04:AMPARAMS|DCode=82|XSize=65.4mil|YSize=23.2mil|CornerRadius=2.9mil|HoleSize=0mil|Usage=FLASHONLY|Rotation=270.000|XOffset=0mil|YOffset=0mil|HoleType=Round|Shape=RoundedRectangle|*
%AMROUNDEDRECTD82*
21,1,0.0654,0.0174,0,0,270.0*
21,1,0.0595,0.0232,0,0,270.0*
1,1,0.0058,-0.0087,-0.0298*
1,1,0.0058,-0.0087,0.0298*
1,1,0.0058,0.0087,0.0298*
1,1,0.0058,0.0087,-0.0298*
%
%ADD82ROUNDEDRECTD82*%
%ADD83R,0.0551X0.0787*%
%ADD84R,0.0630X0.0591*%
D24*
X011122Y013386D02*
D03*
X012022D02*
D03*
X013091D02*
D03*
X013991D02*
D03*
D67*
X022835Y011417D02*
D03*
Y010417D02*
D03*
X00128Y013071D02*
D03*
X008366D02*
D03*
X003642Y026299D02*
D03*
D68*
X022835Y009417D02*
D03*
X006004Y026299D02*
D03*
D69*
X007874Y029921D02*
D03*
X010827D02*
D03*
D70*
X005248Y033394D02*
D03*
X003248D02*
D03*
X001248D02*
D03*
D71*
X000886Y031004D02*
D03*
Y028004D02*
D03*
D72*
X002461Y009449D02*
D03*
X008776Y000689D02*
D03*
X007776D02*
D03*
D73*
X002461Y008449D02*
D03*
D74*
X005868Y029931D02*
D03*
X004368Y029911D02*
D03*
D75*
X006776Y000689D02*
D03*
D76*
X019732Y033976D02*
D03*
X021732D02*
D03*
X016921Y033819D02*
D03*
X014921D02*
D03*
D77*
X012697Y020965D02*
D03*
X010335Y026555D02*
D03*
X015135D02*
D03*
X010335Y021752D02*
D03*
X015059D02*
D03*
X022047D02*
D03*
X017323D02*
D03*
X022123Y026555D02*
D03*
X017323D02*
D03*
X019685Y020965D02*
D03*
D78*
X010718Y01076D02*
D03*
X012598Y00805D02*
D03*
X010718D02*
D03*
X012598Y01076D02*
D03*
X006398Y008117D02*
D03*
X004518Y010827D02*
D03*
X006398D02*
D03*
X004518Y008117D02*
D03*
X000679Y003497D02*
D03*
X002559Y000787D02*
D03*
X000679D02*
D03*
X002559Y003497D02*
D03*
D79*
X017912Y007087D02*
D03*
X018635D02*
D03*
X017551Y006725D02*
D03*
X018274D02*
D03*
X018996D02*
D03*
X017912Y006364D02*
D03*
X018635D02*
D03*
X017551Y006003D02*
D03*
X018274D02*
D03*
X018996D02*
D03*
X017912Y005642D02*
D03*
X018635D02*
D03*
D82*
X01013Y016683D02*
D03*
X01113D02*
D03*
Y014222D02*
D03*
X01013D02*
D03*
X021941D02*
D03*
X022941D02*
D03*
Y016683D02*
D03*
X021941D02*
D03*
D83*
X022835Y003543D02*
D03*
Y006063D02*
D03*
D84*
X02313Y019193D02*
D03*
Y018012D02*
D03*
X021457Y019193D02*
D03*
Y018012D02*
D03*
X009055Y018996D02*
D03*
Y017815D02*
D03*
X011122Y018996D02*
D03*
Y017815D02*
D03*
M02*
