G04*
G04 #@! TF.GenerationSoftware,Altium Limited,Altium Designer,21.3.2 (30)*
G04*
G04 Layer_Color=32768*
%FSTAX24Y24*%
%MOIN*%
G70*
G04*
G04 #@! TF.SameCoordinates,FE128C83-0F67-4140-98D3-9062B7FE4468*
G04*
G04*
G04 #@! TF.FilePolarity,Positive*
G04*
G01*
G75*
%ADD10C,0.0079*%
%ADD12C,0.0100*%
%ADD89C,0.0118*%
D10*
X012756Y006142D02*
Y006654D01*
X011654Y006142D02*
Y006654D01*
X012756D01*
X011654Y006142D02*
X012756D01*
Y007028D02*
Y007539D01*
X011654Y007028D02*
Y007539D01*
X012756D01*
X011654Y007028D02*
X012756D01*
X001929Y031437D02*
X002795D01*
X001929Y029587D02*
X002795D01*
X001929D02*
Y031437D01*
X002795Y029587D02*
Y031437D01*
X006358Y004173D02*
Y005276D01*
X005846Y004173D02*
Y005276D01*
Y004173D02*
X006358D01*
X005846Y005276D02*
X006358D01*
X021988Y007736D02*
X023091D01*
X021988Y007224D02*
X023091D01*
Y007736D01*
X021988Y007224D02*
Y007736D01*
X011654Y005354D02*
X012756D01*
X011654Y005866D02*
X012756D01*
X011654Y005354D02*
Y005866D01*
X012756Y005354D02*
Y005866D01*
X005866Y006634D02*
X006378D01*
X005866Y005531D02*
X006378D01*
X005866D02*
Y006634D01*
X006378Y005531D02*
Y006634D01*
D12*
X014341Y0176D02*
G03*
X014341Y0176I-000039J0D01*
G01*
X019163D02*
G03*
X019163Y0176I-000039J0D01*
G01*
X014065Y016497D02*
Y017836D01*
X015482Y016497D02*
Y017836D01*
X014065Y016497D02*
X015482D01*
X014065Y017836D02*
X015482D01*
X018888D02*
X020305D01*
X018888Y016497D02*
X020305D01*
Y017836D01*
X018888Y016497D02*
Y017836D01*
D89*
X00226Y030967D02*
Y030835D01*
Y030901D01*
X002653D01*
X002588Y030967D01*
Y030639D02*
X002653Y030573D01*
Y030442D01*
X002588Y030376D01*
X002325D01*
X00226Y030442D01*
Y030573D01*
X002325Y030639D01*
X002588D01*
M02*
