G04*
G04 #@! TF.GenerationSoftware,Altium Limited,Altium Designer,21.3.2 (30)*
G04*
G04 Layer_Physical_Order=2*
G04 Layer_Color=16711680*
%FSTAX24Y24*%
%MOIN*%
G70*
G04*
G04 #@! TF.SameCoordinates,FE128C83-0F67-4140-98D3-9062B7FE4468*
G04*
G04*
G04 #@! TF.FilePolarity,Positive*
G04*
G01*
G75*
%ADD17C,0.0197*%
%ADD24R,0.0354X0.0472*%
%ADD65C,0.0138*%
%ADD66C,0.0394*%
%ADD67C,0.0591*%
%ADD68R,0.0591X0.0591*%
%ADD69C,0.0787*%
G04:AMPARAMS|DCode=70|XSize=98.4mil|YSize=118.1mil|CornerRadius=0mil|HoleSize=0mil|Usage=FLASHONLY|Rotation=180.000|XOffset=0mil|YOffset=0mil|HoleType=Round|Shape=Octagon|*
%AMOCTAGOND70*
4,1,8,0.0246,-0.0591,-0.0246,-0.0591,-0.0492,-0.0344,-0.0492,0.0344,-0.0246,0.0591,0.0246,0.0591,0.0492,0.0344,0.0492,-0.0344,0.0246,-0.0591,0.0*
%
%ADD70OCTAGOND70*%

%ADD71O,0.0750X0.0800*%
%ADD72C,0.0630*%
%ADD73R,0.0630X0.0630*%
%ADD74C,0.0984*%
%ADD75R,0.0630X0.0630*%
%ADD76C,0.1100*%
%ADD77C,0.1200*%
%ADD78C,0.0750*%
%ADD79C,0.0236*%
%ADD80C,0.0315*%
%ADD81C,0.1969*%
G04:AMPARAMS|DCode=82|XSize=65.4mil|YSize=23.2mil|CornerRadius=2.9mil|HoleSize=0mil|Usage=FLASHONLY|Rotation=270.000|XOffset=0mil|YOffset=0mil|HoleType=Round|Shape=RoundedRectangle|*
%AMROUNDEDRECTD82*
21,1,0.0654,0.0174,0,0,270.0*
21,1,0.0595,0.0232,0,0,270.0*
1,1,0.0058,-0.0087,-0.0298*
1,1,0.0058,-0.0087,0.0298*
1,1,0.0058,0.0087,0.0298*
1,1,0.0058,0.0087,-0.0298*
%
%ADD82ROUNDEDRECTD82*%
%ADD83R,0.0551X0.0787*%
%ADD84R,0.0630X0.0591*%
G36*
X023471Y003107D02*
X022542D01*
X022542Y003107D01*
X022529Y003104D01*
X013091D01*
X013033Y003093D01*
X012984Y00306D01*
X012955Y003017D01*
X012865D01*
X012814Y003172D01*
X012737Y003323D01*
X012637Y003461D01*
X012516Y003582D01*
X012378Y003682D01*
X012227Y003759D01*
X012065Y003812D01*
X011896Y003839D01*
X011726D01*
X011558Y003812D01*
X011395Y003759D01*
X011244Y003682D01*
X011106Y003582D01*
X010985Y003461D01*
X010885Y003323D01*
X010808Y003172D01*
X010758Y003017D01*
X00941D01*
X009391Y003063D01*
X014589Y008261D01*
X014626Y008317D01*
X014639Y008382D01*
Y010242D01*
X014673Y010276D01*
X014707Y010334D01*
X014724Y010399D01*
Y010467D01*
X014707Y010532D01*
X014673Y01059D01*
X014626Y010638D01*
X014567Y010672D01*
X014502Y010689D01*
X014488D01*
X014468Y010739D01*
X015299Y011571D01*
X015343Y011636D01*
X015358Y011713D01*
Y012595D01*
X02228D01*
X022284Y012591D01*
X022342Y012557D01*
X022407Y012539D01*
X022475D01*
X02254Y012557D01*
X022598Y012591D01*
X022646Y012638D01*
X022679Y012696D01*
X022697Y012762D01*
Y012829D01*
X022679Y012894D01*
X022646Y012952D01*
X022598Y013D01*
X02254Y013034D01*
X022475Y013051D01*
X022407D01*
X022342Y013034D01*
X022284Y013D01*
X02228Y012996D01*
X015319D01*
X015315Y013D01*
X015256Y013034D01*
X015191Y013051D01*
X015124D01*
X015059Y013034D01*
X015Y013D01*
X014953Y012952D01*
X014919Y012894D01*
X014902Y012829D01*
Y012762D01*
X014919Y012696D01*
X014953Y012638D01*
X014957Y012634D01*
Y011796D01*
X011685Y008524D01*
X011679D01*
X011614Y008506D01*
X011555Y008472D01*
X011508Y008425D01*
X011474Y008366D01*
X011457Y008301D01*
Y008234D01*
X011474Y008169D01*
X011508Y008111D01*
X011512Y008107D01*
Y006973D01*
X010405Y005866D01*
X010399D01*
X010334Y005849D01*
X010276Y005815D01*
X010228Y005767D01*
X010195Y005709D01*
X010177Y005644D01*
Y005577D01*
X010195Y005511D01*
X010228Y005453D01*
X010232Y005449D01*
Y005378D01*
X010228Y005374D01*
X010195Y005315D01*
X010177Y00525D01*
Y005183D01*
X010195Y005118D01*
X010228Y005059D01*
X010276Y005012D01*
X010334Y004978D01*
X010399Y004961D01*
X010467D01*
X010532Y004978D01*
X01059Y005012D01*
X010638Y005059D01*
X010672Y005118D01*
X010689Y005183D01*
Y00525D01*
X010672Y005315D01*
X010638Y005374D01*
X010634Y005378D01*
Y005449D01*
X010638Y005453D01*
X010672Y005511D01*
X010689Y005577D01*
Y005582D01*
X011855Y006748D01*
X011898Y006813D01*
X011913Y00689D01*
Y008107D01*
X011917Y008111D01*
X011951Y008169D01*
X011968Y008234D01*
Y00824D01*
X014163Y010434D01*
X014213Y010413D01*
Y010399D01*
X01423Y010334D01*
X014264Y010276D01*
X014298Y010242D01*
Y008453D01*
X008863Y003017D01*
X002774D01*
X002761Y003067D01*
X00285Y003119D01*
X002938Y003207D01*
X003Y003315D01*
X003032Y003435D01*
Y00356D01*
X003Y00368D01*
X002938Y003788D01*
X00285Y003876D01*
X002742Y003939D01*
X002621Y003971D01*
X002497D01*
X002376Y003939D01*
X002268Y003876D01*
X00218Y003788D01*
X002118Y00368D01*
X002086Y00356D01*
Y003435D01*
X002118Y003315D01*
X00218Y003207D01*
X002268Y003119D01*
X002357Y003067D01*
X002344Y003017D01*
X000176D01*
Y015349D01*
X023471D01*
X023471Y003107D01*
D02*
G37*
%LPC*%
G36*
X016668Y014823D02*
X0166D01*
X016535Y014805D01*
X016477Y014772D01*
X016443Y014738D01*
X014561D01*
X014527Y014772D01*
X014469Y014805D01*
X014404Y014823D01*
X014336D01*
X014271Y014805D01*
X014213Y014772D01*
X014165Y014724D01*
X014132Y014666D01*
X014114Y014601D01*
Y014533D01*
X014132Y014468D01*
X014165Y01441D01*
X014213Y014362D01*
X014271Y014328D01*
X014336Y014311D01*
X014404D01*
X014469Y014328D01*
X014527Y014362D01*
X014561Y014396D01*
X016443D01*
X016477Y014362D01*
X016535Y014328D01*
X0166Y014311D01*
X016668D01*
X016733Y014328D01*
X016791Y014362D01*
X016839Y01441D01*
X016872Y014468D01*
X01689Y014533D01*
Y014601D01*
X016872Y014666D01*
X016839Y014724D01*
X016791Y014772D01*
X016733Y014805D01*
X016668Y014823D01*
D02*
G37*
G36*
X022028Y01465D02*
X021854D01*
X021804Y01464D01*
X021762Y014612D01*
X021734Y01457D01*
X021724Y01452D01*
Y013925D01*
X021734Y013875D01*
X021753Y013847D01*
X021744Y013838D01*
X02171Y01378D01*
X021693Y013715D01*
Y013647D01*
X02171Y013582D01*
X021744Y013524D01*
X021792Y013476D01*
X02185Y013443D01*
X021915Y013425D01*
X021983D01*
X022048Y013443D01*
X022106Y013476D01*
X022154Y013524D01*
X022187Y013582D01*
X022205Y013647D01*
Y013715D01*
X022187Y01378D01*
X022154Y013838D01*
X022136Y013856D01*
X022148Y013875D01*
X022158Y013925D01*
Y01452D01*
X022148Y01457D01*
X02212Y014612D01*
X022078Y01464D01*
X022028Y01465D01*
D02*
G37*
G36*
X010217D02*
X010043D01*
X009993Y01464D01*
X009951Y014612D01*
X009923Y01457D01*
X009913Y01452D01*
Y013925D01*
X009923Y013875D01*
X009951Y013833D01*
X009963Y013825D01*
Y013573D01*
X009933Y013543D01*
X009899Y013485D01*
X009882Y01342D01*
Y013352D01*
X009899Y013287D01*
X009933Y013229D01*
X009981Y013181D01*
X010039Y013147D01*
X010104Y01313D01*
X010171D01*
X010237Y013147D01*
X010295Y013181D01*
X010343Y013229D01*
X010376Y013287D01*
X010394Y013352D01*
Y01342D01*
X010376Y013485D01*
X010343Y013543D01*
X010304Y013581D01*
Y01383D01*
X010309Y013833D01*
X010337Y013875D01*
X010347Y013925D01*
Y01452D01*
X010337Y01457D01*
X010309Y014612D01*
X010267Y01464D01*
X010217Y01465D01*
D02*
G37*
G36*
X001331Y013465D02*
X001228D01*
X001128Y013438D01*
X001038Y013386D01*
X000964Y013313D01*
X000913Y013223D01*
X000886Y013123D01*
Y013019D01*
X000913Y012919D01*
X000964Y012829D01*
X001038Y012756D01*
X001128Y012704D01*
X001228Y012677D01*
X001331D01*
X001431Y012704D01*
X001521Y012756D01*
X001595Y012829D01*
X001646Y012919D01*
X001673Y013019D01*
Y013123D01*
X001646Y013223D01*
X001595Y013313D01*
X001521Y013386D01*
X001431Y013438D01*
X001331Y013465D01*
D02*
G37*
G36*
X013366Y01372D02*
X012815D01*
Y013051D01*
X013125D01*
X013331Y012845D01*
X013327Y012829D01*
Y012762D01*
X013344Y012696D01*
X013378Y012638D01*
X013426Y012591D01*
X013484Y012557D01*
X013549Y012539D01*
X013616D01*
X013681Y012557D01*
X01374Y012591D01*
X013787Y012638D01*
X013821Y012696D01*
X013839Y012762D01*
Y012829D01*
X013821Y012894D01*
X013787Y012952D01*
X01374Y013D01*
X013681Y013034D01*
X013616Y013051D01*
X013607D01*
X013366Y013292D01*
Y01372D01*
D02*
G37*
G36*
X011398D02*
X010846D01*
Y013051D01*
X011214D01*
X011216Y013051D01*
X01169Y012576D01*
X011746Y012539D01*
X011811Y012526D01*
X012604D01*
X012638Y012492D01*
X012696Y012458D01*
X012762Y012441D01*
X012829D01*
X012894Y012458D01*
X012952Y012492D01*
X013Y01254D01*
X013034Y012598D01*
X013051Y012663D01*
Y012731D01*
X013034Y012796D01*
X013Y012854D01*
X012952Y012902D01*
X012894Y012935D01*
X012829Y012953D01*
X012762D01*
X012696Y012935D01*
X012638Y012902D01*
X012604Y012867D01*
X011882D01*
X01141Y013339D01*
X011398Y013347D01*
Y01372D01*
D02*
G37*
G36*
X022886Y011811D02*
X022783D01*
X022683Y011784D01*
X022593Y011732D01*
X02252Y011659D01*
X022479Y011588D01*
X02231D01*
X022244Y011575D01*
X022189Y011538D01*
X021977Y011325D01*
X021724D01*
X021659Y011313D01*
X021604Y011276D01*
X021589Y01128D01*
X021521D01*
X021456Y011262D01*
X021398Y011228D01*
X02135Y011181D01*
X021317Y011122D01*
X021299Y011057D01*
Y01099D01*
X021317Y010925D01*
X02135Y010866D01*
X021398Y010819D01*
X021456Y010785D01*
X021521Y010768D01*
X021589D01*
X021654Y010785D01*
X021712Y010819D01*
X02176Y010866D01*
X021794Y010925D01*
X02181Y010984D01*
X022047D01*
X022113Y010997D01*
X022168Y011034D01*
X02238Y011247D01*
X022479D01*
X02252Y011176D01*
X022593Y011102D01*
X022683Y01105D01*
X022783Y011024D01*
X022886D01*
X022987Y01105D01*
X023076Y011102D01*
X02315Y011176D01*
X023202Y011265D01*
X023228Y011365D01*
Y011469D01*
X023202Y011569D01*
X02315Y011659D01*
X023076Y011732D01*
X022987Y011784D01*
X022886Y011811D01*
D02*
G37*
G36*
X00458Y0113D02*
X004455D01*
X004335Y011268D01*
X004227Y011206D01*
X004139Y011117D01*
X004076Y01101D01*
X004044Y010889D01*
Y010764D01*
X004076Y010644D01*
X004139Y010536D01*
X004227Y010448D01*
X004335Y010386D01*
X004455Y010353D01*
X00458D01*
X0047Y010386D01*
X004808Y010448D01*
X004896Y010536D01*
X004959Y010644D01*
X004991Y010764D01*
Y010889D01*
X004959Y01101D01*
X004896Y011117D01*
X004808Y011206D01*
X0047Y011268D01*
X00458Y0113D01*
D02*
G37*
G36*
X012661Y011233D02*
X012536D01*
X012416Y011201D01*
X012308Y011139D01*
X01222Y011051D01*
X012157Y010943D01*
X012125Y010822D01*
Y010698D01*
X012157Y010577D01*
X01222Y010469D01*
X012308Y010381D01*
X012416Y010319D01*
X012536Y010287D01*
X012661D01*
X012781Y010319D01*
X012889Y010381D01*
X012977Y010469D01*
X01304Y010577D01*
X013072Y010698D01*
Y010822D01*
X01304Y010943D01*
X012977Y011051D01*
X012889Y011139D01*
X012781Y011201D01*
X012661Y011233D01*
D02*
G37*
G36*
X022886Y010811D02*
X022783D01*
X022683Y010784D01*
X022593Y010732D01*
X02252Y010659D01*
X022468Y010569D01*
X022441Y010469D01*
Y010365D01*
X022468Y010265D01*
X02252Y010176D01*
X022593Y010102D01*
X022683Y01005D01*
X022783Y010024D01*
X022886D01*
X022987Y01005D01*
X023076Y010102D01*
X02315Y010176D01*
X023202Y010265D01*
X023228Y010365D01*
Y010469D01*
X023202Y010569D01*
X02315Y010659D01*
X023076Y010732D01*
X022987Y010784D01*
X022886Y010811D01*
D02*
G37*
G36*
X023228Y009811D02*
X022441D01*
Y009024D01*
X023228D01*
Y009811D01*
D02*
G37*
G36*
X002874Y008862D02*
X002047D01*
Y008035D01*
X002874D01*
Y008862D01*
D02*
G37*
G36*
X00458Y00859D02*
X004455D01*
X004335Y008558D01*
X004227Y008496D01*
X004139Y008407D01*
X004076Y0083D01*
X004044Y008179D01*
Y008054D01*
X004076Y007934D01*
X004139Y007826D01*
X004227Y007738D01*
X004335Y007676D01*
X004455Y007643D01*
X00458D01*
X0047Y007676D01*
X004808Y007738D01*
X004896Y007826D01*
X004959Y007934D01*
X004991Y008054D01*
Y008179D01*
X004959Y0083D01*
X004896Y008407D01*
X004808Y008496D01*
X0047Y008558D01*
X00458Y00859D01*
D02*
G37*
G36*
X012661Y008523D02*
X012536D01*
X012416Y008491D01*
X012308Y008429D01*
X01222Y008341D01*
X012157Y008233D01*
X012125Y008112D01*
Y007988D01*
X012157Y007867D01*
X01222Y007759D01*
X012308Y007671D01*
X012416Y007609D01*
X012536Y007577D01*
X012661D01*
X012781Y007609D01*
X012889Y007671D01*
X012977Y007759D01*
X01304Y007867D01*
X013072Y007988D01*
Y008112D01*
X01304Y008233D01*
X012977Y008341D01*
X012889Y008429D01*
X012781Y008491D01*
X012661Y008523D01*
D02*
G37*
G36*
X018678Y007303D02*
X018592D01*
X018512Y00727D01*
X018451Y007209D01*
X018418Y00713D01*
Y007044D01*
X018451Y006964D01*
X018512Y006903D01*
X018592Y00687D01*
X018678D01*
X018757Y006903D01*
X018818Y006964D01*
X018851Y007044D01*
Y00713D01*
X018818Y007209D01*
X018757Y00727D01*
X018678Y007303D01*
D02*
G37*
G36*
X017955D02*
X017869D01*
X01779Y00727D01*
X017729Y007209D01*
X017696Y00713D01*
Y007044D01*
X017729Y006964D01*
X01779Y006903D01*
X017869Y00687D01*
X017955D01*
X018035Y006903D01*
X018096Y006964D01*
X018129Y007044D01*
Y00713D01*
X018096Y007209D01*
X018035Y00727D01*
X017955Y007303D01*
D02*
G37*
G36*
X019039Y006942D02*
X018953D01*
X018873Y006909D01*
X018812Y006848D01*
X01878Y006768D01*
Y006682D01*
X018812Y006603D01*
X018873Y006542D01*
X018953Y006509D01*
X019039D01*
X019119Y006542D01*
X01918Y006603D01*
X019213Y006682D01*
Y006768D01*
X01918Y006848D01*
X019119Y006909D01*
X019039Y006942D01*
D02*
G37*
G36*
X018317D02*
X018231D01*
X018151Y006909D01*
X01809Y006848D01*
X018057Y006768D01*
Y006682D01*
X01809Y006603D01*
X018151Y006542D01*
X018231Y006509D01*
X018317D01*
X018396Y006542D01*
X018457Y006603D01*
X01849Y006682D01*
Y006768D01*
X018457Y006848D01*
X018396Y006909D01*
X018317Y006942D01*
D02*
G37*
G36*
X017594D02*
X017508D01*
X017429Y006909D01*
X017368Y006848D01*
X017335Y006768D01*
Y006682D01*
X017368Y006603D01*
X017429Y006542D01*
X017508Y006509D01*
X017594D01*
X017674Y006542D01*
X017735Y006603D01*
X017768Y006682D01*
Y006768D01*
X017735Y006848D01*
X017674Y006909D01*
X017594Y006942D01*
D02*
G37*
G36*
X023209Y006555D02*
X022461D01*
Y006234D01*
X022351D01*
X022286Y006221D01*
X02223Y006184D01*
X022202Y006155D01*
X022179Y006161D01*
X022112D01*
X022047Y006144D01*
X021989Y00611D01*
X021941Y006063D01*
X021907Y006004D01*
X02189Y005939D01*
Y005872D01*
X021907Y005807D01*
X021941Y005748D01*
X021989Y005701D01*
X022047Y005667D01*
X022112Y00565D01*
X022179D01*
X022244Y005667D01*
X022303Y005701D01*
X02235Y005748D01*
X022384Y005807D01*
X022392Y005837D01*
X022411Y005847D01*
X022461Y005819D01*
Y005571D01*
X023209D01*
Y006555D01*
D02*
G37*
G36*
X018678Y006581D02*
X018592D01*
X018512Y006548D01*
X018451Y006487D01*
X018418Y006407D01*
Y006321D01*
X018451Y006242D01*
X018512Y006181D01*
X018592Y006148D01*
X018678D01*
X018757Y006181D01*
X018818Y006242D01*
X018851Y006321D01*
Y006407D01*
X018818Y006487D01*
X018757Y006548D01*
X018678Y006581D01*
D02*
G37*
G36*
X017955D02*
X017869D01*
X01779Y006548D01*
X017729Y006487D01*
X017696Y006407D01*
Y006321D01*
X017729Y006242D01*
X01779Y006181D01*
X017869Y006148D01*
X017955D01*
X018035Y006181D01*
X018096Y006242D01*
X018129Y006321D01*
Y006407D01*
X018096Y006487D01*
X018035Y006548D01*
X017955Y006581D01*
D02*
G37*
G36*
X019039Y006219D02*
X018953D01*
X018873Y006187D01*
X018812Y006126D01*
X01878Y006046D01*
Y00596D01*
X018812Y00588D01*
X018873Y005819D01*
X018953Y005786D01*
X019039D01*
X019119Y005819D01*
X01918Y00588D01*
X019213Y00596D01*
Y006046D01*
X01918Y006126D01*
X019119Y006187D01*
X019039Y006219D01*
D02*
G37*
G36*
X018317D02*
X018231D01*
X018151Y006187D01*
X01809Y006126D01*
X018057Y006046D01*
Y00596D01*
X01809Y00588D01*
X018151Y005819D01*
X018231Y005786D01*
X018317D01*
X018396Y005819D01*
X018457Y00588D01*
X01849Y00596D01*
Y006046D01*
X018457Y006126D01*
X018396Y006187D01*
X018317Y006219D01*
D02*
G37*
G36*
X017594D02*
X017508D01*
X017429Y006187D01*
X017368Y006126D01*
X017335Y006046D01*
Y00596D01*
X017368Y00588D01*
X017429Y005819D01*
X017508Y005786D01*
X017594D01*
X017674Y005819D01*
X017735Y00588D01*
X017768Y00596D01*
Y006046D01*
X017735Y006126D01*
X017674Y006187D01*
X017594Y006219D01*
D02*
G37*
G36*
X018678Y005858D02*
X018592D01*
X018512Y005825D01*
X018451Y005764D01*
X018418Y005685D01*
Y005599D01*
X018451Y005519D01*
X018512Y005458D01*
X018592Y005425D01*
X018678D01*
X018757Y005458D01*
X018818Y005519D01*
X018851Y005599D01*
Y005685D01*
X018818Y005764D01*
X018757Y005825D01*
X018678Y005858D01*
D02*
G37*
G36*
X017955D02*
X017869D01*
X01779Y005825D01*
X017729Y005764D01*
X017696Y005685D01*
Y005599D01*
X017729Y005519D01*
X01779Y005458D01*
X017869Y005425D01*
X017955D01*
X018035Y005458D01*
X018096Y005519D01*
X018129Y005599D01*
Y005685D01*
X018096Y005764D01*
X018035Y005825D01*
X017955Y005858D01*
D02*
G37*
%LPD*%
D17*
X010433Y005217D02*
Y00561D01*
X015157Y011713D02*
Y012795D01*
X022441D01*
X011713Y00689D02*
Y008268D01*
X010433Y00561D02*
X011713Y00689D01*
Y008268D02*
X015157Y011713D01*
D24*
X011122Y013386D02*
D03*
X012022D02*
D03*
X013091D02*
D03*
X013991D02*
D03*
D65*
X021593Y011024D02*
X021724Y011155D01*
X02231Y011417D02*
X022835D01*
X022047Y011155D02*
X02231Y011417D01*
X021555Y011024D02*
X021593D01*
X021724Y011155D02*
X022047D01*
X008858Y025079D02*
X010335Y026555D01*
X008858Y019193D02*
X009055Y018996D01*
X008858Y019193D02*
Y025079D01*
X012697Y020965D02*
X013268D01*
X011368Y019222D02*
Y019242D01*
X012494Y020368D01*
Y020761D02*
X012697Y020965D01*
X011122Y018996D02*
X011142D01*
X011368Y019222D01*
X012494Y020368D02*
Y020761D01*
X02313Y019193D02*
Y027756D01*
X022638Y028248D02*
X02313Y027756D01*
X019685Y020965D02*
Y020965D01*
X021211Y019419D02*
X021437Y019193D01*
X021457D01*
X021211Y019419D02*
Y019439D01*
X019685Y020965D02*
X021211Y019439D01*
X011811Y012697D02*
X012795D01*
X010134Y01339D02*
X010138Y013386D01*
X010134Y01339D02*
Y014218D01*
X021941Y014222D02*
X021945Y014218D01*
Y013685D02*
Y014218D01*
Y013685D02*
X021949Y013681D01*
X01437Y014567D02*
X016634D01*
X01013Y014222D02*
X010134Y014218D01*
X013583Y012795D02*
Y012835D01*
X013091Y013327D02*
X013583Y012835D01*
X011289Y013218D02*
X011811Y012697D01*
X014468Y008382D02*
Y010433D01*
X013091Y013327D02*
Y013386D01*
X01123Y013218D02*
X011289D01*
X011122Y013327D02*
Y013386D01*
Y013327D02*
X01123Y013218D01*
X006776Y000689D02*
X014468Y008382D01*
X01113Y016683D02*
Y017807D01*
X011122Y017815D02*
X01113Y017807D01*
X022146Y005906D02*
X022194D01*
X022351Y006063D02*
X022835D01*
X022194Y005906D02*
X022351Y006063D01*
X022941Y016894D02*
X02313Y017083D01*
Y018012D01*
X022941Y016683D02*
Y016894D01*
X021457Y017378D02*
X021941Y016894D01*
Y016683D02*
Y016894D01*
X021457Y017378D02*
Y018012D01*
X009055Y017815D02*
X009075D01*
X009949Y016941D01*
X010083D01*
X01013Y016894D01*
Y016683D02*
Y016894D01*
X009047Y017807D02*
X009055Y017815D01*
D66*
X015256Y031102D02*
X016921Y032768D01*
X012697Y026673D02*
X015256Y029232D01*
Y031102D01*
X014416Y033505D02*
X01473Y033819D01*
X010827Y029921D02*
X01441Y033505D01*
X01473Y033819D02*
X014921D01*
X01441Y033505D02*
X014416D01*
X016921Y032768D02*
Y033819D01*
X017323Y03061D02*
X019732Y03302D01*
Y033976D01*
X017323Y026555D02*
Y03061D01*
X00187Y013301D02*
Y013315D01*
X001524Y013661D02*
X00187Y013315D01*
X002101Y013071D02*
X008366D01*
X00187Y013301D02*
X002101Y013071D01*
X000886Y014075D02*
Y028004D01*
Y014075D02*
X001299Y013661D01*
X001524D01*
X010335Y026697D02*
X010827Y027189D01*
Y029921D01*
X010335Y026555D02*
Y026697D01*
X010827Y029921D02*
X010827Y029921D01*
X012697Y020965D02*
Y026673D01*
X006004Y026299D02*
X007205D01*
X010827Y029921D01*
X005248Y033236D02*
Y033394D01*
Y033236D02*
X006594Y03189D01*
X008858D02*
X010827Y029921D01*
X006594Y03189D02*
X008858D01*
X021732Y032067D02*
Y033976D01*
X019685Y020965D02*
Y03002D01*
X021732Y032067D01*
X019567Y033976D02*
X019732D01*
X016142Y035335D02*
X018209D01*
X019567Y033976D01*
X015186Y034275D02*
Y034379D01*
X014921Y033819D02*
Y03401D01*
X015186Y034275D01*
Y034379D02*
X016142Y035335D01*
D67*
X022835Y011417D02*
D03*
Y010417D02*
D03*
X00128Y013071D02*
D03*
X008366D02*
D03*
X003642Y026299D02*
D03*
D68*
X022835Y009417D02*
D03*
X006004Y026299D02*
D03*
D69*
X007874Y029921D02*
D03*
X010827D02*
D03*
D70*
X005248Y033394D02*
D03*
X003248D02*
D03*
X001248D02*
D03*
D71*
X000886Y031004D02*
D03*
Y028004D02*
D03*
D72*
X002461Y009449D02*
D03*
X008776Y000689D02*
D03*
X007776D02*
D03*
D73*
X002461Y008449D02*
D03*
D74*
X005868Y029931D02*
D03*
X004368Y029911D02*
D03*
D75*
X006776Y000689D02*
D03*
D76*
X019732Y033976D02*
D03*
X021732D02*
D03*
X016921Y033819D02*
D03*
X014921D02*
D03*
D77*
X012697Y020965D02*
D03*
X010335Y026555D02*
D03*
X015135D02*
D03*
X010335Y021752D02*
D03*
X015059D02*
D03*
X022047D02*
D03*
X017323D02*
D03*
X022123Y026555D02*
D03*
X017323D02*
D03*
X019685Y020965D02*
D03*
D78*
X010718Y01076D02*
D03*
X012598Y00805D02*
D03*
X010718D02*
D03*
X012598Y01076D02*
D03*
X006398Y008117D02*
D03*
X004518Y010827D02*
D03*
X006398D02*
D03*
X004518Y008117D02*
D03*
X000679Y003497D02*
D03*
X002559Y000787D02*
D03*
X000679D02*
D03*
X002559Y003497D02*
D03*
D79*
X017912Y007087D02*
D03*
X018635D02*
D03*
X017551Y006725D02*
D03*
X018274D02*
D03*
X018996D02*
D03*
X017912Y006364D02*
D03*
X018635D02*
D03*
X017551Y006003D02*
D03*
X018274D02*
D03*
X018996D02*
D03*
X017912Y005642D02*
D03*
X018635D02*
D03*
D80*
X022146Y005906D02*
D03*
X020571Y011909D02*
D03*
X021555Y011024D02*
D03*
X010433Y005217D02*
D03*
X022146Y00374D02*
D03*
X022835Y007972D02*
D03*
X016339Y015157D02*
D03*
X022638Y028248D02*
D03*
X012795Y012697D02*
D03*
X016043Y012402D02*
D03*
X023228Y004331D02*
D03*
X006594Y006791D02*
D03*
X010138Y013386D02*
D03*
X015157Y012795D02*
D03*
X020079Y011024D02*
D03*
X021457Y015059D02*
D03*
X021949Y013681D02*
D03*
X016634Y014567D02*
D03*
X01437D02*
D03*
X011319Y007283D02*
D03*
X01378Y003445D02*
D03*
X011516Y006102D02*
D03*
X022441Y012795D02*
D03*
X013583D02*
D03*
X011713Y008268D02*
D03*
X010433Y00561D02*
D03*
X014468Y010433D02*
D03*
D81*
X011811Y03622D02*
D03*
Y002756D02*
D03*
D82*
X01013Y016683D02*
D03*
X01113D02*
D03*
Y014222D02*
D03*
X01013D02*
D03*
X021941D02*
D03*
X022941D02*
D03*
Y016683D02*
D03*
X021941D02*
D03*
D83*
X022835Y003543D02*
D03*
Y006063D02*
D03*
D84*
X02313Y019193D02*
D03*
Y018012D02*
D03*
X021457Y019193D02*
D03*
Y018012D02*
D03*
X009055Y018996D02*
D03*
Y017815D02*
D03*
X011122Y018996D02*
D03*
Y017815D02*
D03*
M02*
