G04*
G04 #@! TF.GenerationSoftware,Altium Limited,Altium Designer,21.3.2 (30)*
G04*
G04 Layer_Color=128*
%FSTAX24Y24*%
%MOIN*%
G70*
G04*
G04 #@! TF.SameCoordinates,FE128C83-0F67-4140-98D3-9062B7FE4468*
G04*
G04*
G04 #@! TF.FilePolarity,Positive*
G04*
G01*
G75*
%ADD92C,0.0020*%
D92*
X022657Y011417D02*
X023012D01*
X022835Y01124D02*
Y011594D01*
X022657Y010417D02*
X023012D01*
X022835Y01024D02*
Y010594D01*
X022657Y009417D02*
X023012D01*
X022835Y00924D02*
Y009594D01*
X007677Y029921D02*
X008071D01*
X007874Y029724D02*
Y030118D01*
X01063Y029921D02*
X011024D01*
X010827Y029724D02*
Y030118D01*
X005012Y033394D02*
X005484D01*
X005248Y033158D02*
Y03363D01*
X003012Y033394D02*
X003484D01*
X003248Y033158D02*
Y03363D01*
X001012Y033394D02*
X001484D01*
X001248Y033158D02*
Y03363D01*
X000731Y031004D02*
X001041D01*
X000886Y030849D02*
Y031159D01*
X000731Y028004D02*
X001041D01*
X000886Y027849D02*
Y028159D01*
X002244Y009449D02*
X002677D01*
X002461Y009232D02*
Y009665D01*
X002244Y008449D02*
X002677D01*
X002461Y008232D02*
Y008665D01*
X001083Y013071D02*
X001476D01*
X00128Y012874D02*
Y013268D01*
X008169Y013071D02*
X008563D01*
X008366Y012874D02*
Y013268D01*
X003445Y026299D02*
X003839D01*
X003642Y026102D02*
Y026496D01*
X005807Y026299D02*
X006201D01*
X006004Y026102D02*
Y026496D01*
X005671Y029931D02*
X006065D01*
X005868Y029734D02*
Y030128D01*
X004171Y029911D02*
X004565D01*
X004368Y029714D02*
Y030108D01*
X008559Y000689D02*
X008992D01*
X008776Y000472D02*
Y000906D01*
X007559Y000689D02*
X007992D01*
X007776Y000472D02*
Y000906D01*
X006559Y000689D02*
X006992D01*
X006776Y000472D02*
Y000906D01*
X019482Y033976D02*
X019982D01*
X019732Y033726D02*
Y034226D01*
X021482Y033976D02*
X021982D01*
X021732Y033726D02*
Y034226D01*
X012472Y020965D02*
X012922D01*
X012697Y02074D02*
Y02119D01*
X01011Y026555D02*
X01056D01*
X010335Y02633D02*
Y02678D01*
X01491Y026555D02*
X01536D01*
X015135Y02633D02*
Y02678D01*
X01011Y021752D02*
X01056D01*
X010335Y021527D02*
Y021977D01*
X014834Y021752D02*
X015284D01*
X015059Y021527D02*
Y021977D01*
X010563Y01076D02*
X010873D01*
X010718Y010605D02*
Y010915D01*
X012443Y00805D02*
X012753D01*
X012598Y007895D02*
Y008205D01*
X010563Y00805D02*
X010873D01*
X010718Y007895D02*
Y008205D01*
X012443Y01076D02*
X012753D01*
X012598Y010605D02*
Y010915D01*
X006243Y008117D02*
X006553D01*
X006398Y007962D02*
Y008272D01*
X004363Y010827D02*
X004673D01*
X004518Y010672D02*
Y010982D01*
X006243Y010827D02*
X006553D01*
X006398Y010672D02*
Y010982D01*
X004363Y008117D02*
X004673D01*
X004518Y007962D02*
Y008272D01*
X000524Y003497D02*
X000834D01*
X000679Y003342D02*
Y003652D01*
X002404Y000787D02*
X002714D01*
X002559Y000632D02*
Y000942D01*
X000524Y000787D02*
X000834D01*
X000679Y000632D02*
Y000942D01*
X002404Y003497D02*
X002714D01*
X002559Y003342D02*
Y003652D01*
X017853Y007087D02*
X017971D01*
X017912Y007028D02*
Y007146D01*
X018576Y007087D02*
X018694D01*
X018635Y007028D02*
Y007146D01*
X017492Y006725D02*
X01761D01*
X017551Y006666D02*
Y006784D01*
X018215Y006725D02*
X018333D01*
X018274Y006666D02*
Y006784D01*
X018937Y006725D02*
X019055D01*
X018996Y006666D02*
Y006784D01*
X017853Y006364D02*
X017971D01*
X017912Y006305D02*
Y006423D01*
X018576Y006364D02*
X018694D01*
X018635Y006305D02*
Y006423D01*
X017492Y006003D02*
X01761D01*
X017551Y005944D02*
Y006062D01*
X018215Y006003D02*
X018333D01*
X018274Y005944D02*
Y006062D01*
X018937Y006003D02*
X019055D01*
X018996Y005944D02*
Y006062D01*
X017853Y005642D02*
X017971D01*
X017912Y005583D02*
Y005701D01*
X018576Y005642D02*
X018694D01*
X018635Y005583D02*
Y005701D01*
X016671Y033819D02*
X017171D01*
X016921Y033569D02*
Y034069D01*
X014671Y033819D02*
X015171D01*
X014921Y033569D02*
Y034069D01*
X021822Y021752D02*
X022272D01*
X022047Y021527D02*
Y021977D01*
X017098Y021752D02*
X017548D01*
X017323Y021527D02*
Y021977D01*
X021898Y026555D02*
X022348D01*
X022123Y02633D02*
Y02678D01*
X017098Y026555D02*
X017548D01*
X017323Y02633D02*
Y02678D01*
X01946Y020965D02*
X01991D01*
X019685Y02074D02*
Y02119D01*
X022067Y005906D02*
X022224D01*
X022146Y005827D02*
Y005984D01*
X020492Y011909D02*
X02065D01*
X020571Y011831D02*
Y011988D01*
X021476Y011024D02*
X021634D01*
X021555Y010945D02*
Y011102D01*
X010354Y005217D02*
X010512D01*
X010433Y005138D02*
Y005295D01*
X022067Y00374D02*
X022224D01*
X022146Y003661D02*
Y003819D01*
X022756Y007972D02*
X022913D01*
X022835Y007894D02*
Y008051D01*
X01626Y015157D02*
X016417D01*
X016339Y015079D02*
Y015236D01*
X022559Y028248D02*
X022717D01*
X022638Y028169D02*
Y028327D01*
X012717Y012697D02*
X012874D01*
X012795Y012618D02*
Y012776D01*
X015965Y012402D02*
X016122D01*
X016043Y012323D02*
Y01248D01*
X02315Y004331D02*
X023307D01*
X023228Y004252D02*
Y004409D01*
X006516Y006791D02*
X006673D01*
X006594Y006713D02*
Y00687D01*
X010059Y013386D02*
X010217D01*
X010138Y013307D02*
Y013465D01*
X015079Y012795D02*
X015236D01*
X015157Y012717D02*
Y012874D01*
X02Y011024D02*
X020157D01*
X020079Y010945D02*
Y011102D01*
X021378Y015059D02*
X021535D01*
X021457Y01498D02*
Y015138D01*
X02187Y013681D02*
X022028D01*
X021949Y013602D02*
Y01376D01*
X016555Y014567D02*
X016713D01*
X016634Y014488D02*
Y014646D01*
X014291Y014567D02*
X014449D01*
X01437Y014488D02*
Y014646D01*
X01124Y007283D02*
X011398D01*
X011319Y007205D02*
Y007362D01*
X013701Y003445D02*
X013858D01*
X01378Y003366D02*
Y003524D01*
X011437Y006102D02*
X011594D01*
X011516Y006024D02*
Y006181D01*
X022362Y012795D02*
X02252D01*
X022441Y012717D02*
Y012874D01*
X013504Y012795D02*
X013661D01*
X013583Y012717D02*
Y012874D01*
X011634Y008268D02*
X011791D01*
X011713Y008189D02*
Y008346D01*
X010354Y00561D02*
X010512D01*
X010433Y005531D02*
Y005689D01*
X01439Y010433D02*
X014547D01*
X014468Y010354D02*
Y010512D01*
X011024Y03622D02*
X012598D01*
X011811Y035433D02*
Y037008D01*
X011024Y002756D02*
X012598D01*
X011811Y001969D02*
Y003543D01*
M02*
