G04*
G04 #@! TF.GenerationSoftware,Altium Limited,Altium Designer,21.3.2 (30)*
G04*
G04 Layer_Color=8388736*
%FSTAX24Y24*%
%MOIN*%
G70*
G04*
G04 #@! TF.SameCoordinates,FE128C83-0F67-4140-98D3-9062B7FE4468*
G04*
G04*
G04 #@! TF.FilePolarity,Negative*
G04*
G01*
G75*
%ADD35R,0.0395X0.0434*%
%ADD36R,0.0454X0.0434*%
%ADD37R,0.0474X0.0356*%
%ADD38R,0.0867X0.1655*%
%ADD39R,0.1064X0.1064*%
%ADD40R,0.0434X0.0552*%
%ADD41R,0.0789X0.0592*%
%ADD42R,0.0434X0.0395*%
%ADD43R,0.0434X0.0454*%
%ADD44R,0.0474X0.0552*%
%ADD45O,0.0966X0.0710*%
%ADD46R,0.0604X0.0604*%
%ADD47R,0.0867X0.0434*%
%ADD48R,0.0434X0.0867*%
%ADD49R,0.1025X0.1379*%
%ADD50R,0.1025X0.0474*%
%ADD51C,0.0671*%
%ADD52R,0.0671X0.0671*%
%ADD53C,0.0867*%
G04:AMPARAMS|DCode=54|XSize=106.4mil|YSize=126.1mil|CornerRadius=0mil|HoleSize=0mil|Usage=FLASHONLY|Rotation=180.000|XOffset=0mil|YOffset=0mil|HoleType=Round|Shape=Octagon|*
%AMOCTAGOND54*
4,1,8,0.0266,-0.0631,-0.0266,-0.0631,-0.0532,-0.0364,-0.0532,0.0364,-0.0266,0.0631,0.0266,0.0631,0.0532,0.0364,0.0532,-0.0364,0.0266,-0.0631,0.0*
%
%ADD54OCTAGOND54*%

%ADD55O,0.0830X0.0880*%
%ADD56C,0.0710*%
%ADD57R,0.0710X0.0710*%
%ADD58C,0.1064*%
%ADD59R,0.0710X0.0710*%
%ADD60C,0.1180*%
%ADD61C,0.1280*%
%ADD62C,0.0830*%
%ADD63C,0.0316*%
%ADD64C,0.0395*%
D35*
X01189Y006398D02*
D03*
X01252D02*
D03*
X01189Y007283D02*
D03*
X01252D02*
D03*
X022224Y00748D02*
D03*
X022854D02*
D03*
X01252Y00561D02*
D03*
X01189D02*
D03*
D36*
X012598Y009055D02*
D03*
X012008D02*
D03*
X018504Y018504D02*
D03*
X017913D02*
D03*
X020669Y013583D02*
D03*
X020079D02*
D03*
X021555Y011516D02*
D03*
X020965D02*
D03*
X022539Y013287D02*
D03*
X021949D02*
D03*
X013091Y018504D02*
D03*
X013681D02*
D03*
X015748Y013583D02*
D03*
X015157D02*
D03*
X022343Y006791D02*
D03*
X022933D02*
D03*
D37*
X015246Y017196D02*
D03*
X014284Y016834D02*
D03*
X014281Y017578D02*
D03*
X019104D02*
D03*
X019106Y016834D02*
D03*
X020069Y017196D02*
D03*
D38*
X003642Y004469D02*
D03*
Y006752D02*
D03*
D39*
X022933Y005157D02*
D03*
Y003701D02*
D03*
D40*
X015157Y018504D02*
D03*
X014257D02*
D03*
X019994D02*
D03*
X019094D02*
D03*
D41*
X002362Y031102D02*
D03*
Y029921D02*
D03*
D42*
X006102Y005039D02*
D03*
Y004409D02*
D03*
X006122Y005768D02*
D03*
Y006398D02*
D03*
D43*
X013583Y017421D02*
D03*
Y016831D02*
D03*
X012894Y017421D02*
D03*
Y016831D02*
D03*
X018406Y017421D02*
D03*
Y016831D02*
D03*
X017717Y017421D02*
D03*
Y016831D02*
D03*
X015512Y011594D02*
D03*
Y012185D02*
D03*
X014843Y011594D02*
D03*
Y012185D02*
D03*
X013878Y011614D02*
D03*
Y012205D02*
D03*
X013189Y011614D02*
D03*
Y012205D02*
D03*
D44*
X013307Y019488D02*
D03*
X014608D02*
D03*
X01872Y019587D02*
D03*
X020021D02*
D03*
D45*
X01752Y014559D02*
D03*
Y015559D02*
D03*
X020866D02*
D03*
Y014559D02*
D03*
X012402D02*
D03*
Y015559D02*
D03*
X015748D02*
D03*
Y014559D02*
D03*
D46*
X017551Y007087D02*
D03*
X018274D02*
D03*
X018996D02*
D03*
X017551Y006364D02*
D03*
X018274D02*
D03*
X018996D02*
D03*
X017551Y005642D02*
D03*
X018274D02*
D03*
X018996D02*
D03*
D47*
X014533Y003411D02*
D03*
Y003911D02*
D03*
Y004411D02*
D03*
Y004911D02*
D03*
Y005411D02*
D03*
Y005911D02*
D03*
Y006411D02*
D03*
Y006911D02*
D03*
Y007411D02*
D03*
Y007911D02*
D03*
Y008411D02*
D03*
Y008911D02*
D03*
Y009411D02*
D03*
Y009911D02*
D03*
X021226D02*
D03*
Y009411D02*
D03*
Y008911D02*
D03*
Y008411D02*
D03*
Y007911D02*
D03*
Y007411D02*
D03*
Y006911D02*
D03*
Y006411D02*
D03*
Y005911D02*
D03*
Y005411D02*
D03*
Y004911D02*
D03*
Y004411D02*
D03*
Y003911D02*
D03*
Y003411D02*
D03*
D48*
X01563Y010305D02*
D03*
X01613D02*
D03*
X01663D02*
D03*
X01713D02*
D03*
X01763D02*
D03*
X01813D02*
D03*
X01863D02*
D03*
X01913D02*
D03*
X01963D02*
D03*
X02013D02*
D03*
D49*
X009508Y005315D02*
D03*
D50*
X007224Y004409D02*
D03*
Y005315D02*
D03*
Y00622D02*
D03*
D51*
X022835Y011417D02*
D03*
Y010417D02*
D03*
X00128Y013071D02*
D03*
X008366D02*
D03*
X003642Y026299D02*
D03*
D52*
X022835Y009417D02*
D03*
X006004Y026299D02*
D03*
D53*
X007874Y029921D02*
D03*
X010827D02*
D03*
D54*
X005248Y033394D02*
D03*
X003248D02*
D03*
X001248D02*
D03*
D55*
X000886Y031004D02*
D03*
Y028004D02*
D03*
D56*
X002461Y009449D02*
D03*
X008776Y000689D02*
D03*
X007776D02*
D03*
D57*
X002461Y008449D02*
D03*
D58*
X005868Y029931D02*
D03*
X004368Y029911D02*
D03*
D59*
X006776Y000689D02*
D03*
D60*
X019732Y033976D02*
D03*
X021732D02*
D03*
X016921Y033819D02*
D03*
X014921D02*
D03*
D61*
X012697Y020965D02*
D03*
X010335Y026555D02*
D03*
X015135D02*
D03*
X010335Y021752D02*
D03*
X015059D02*
D03*
X022047D02*
D03*
X017323D02*
D03*
X022123Y026555D02*
D03*
X017323D02*
D03*
X019685Y020965D02*
D03*
D62*
X010718Y01076D02*
D03*
X012598Y00805D02*
D03*
X010718D02*
D03*
X012598Y01076D02*
D03*
X006398Y008117D02*
D03*
X004518Y010827D02*
D03*
X006398D02*
D03*
X004518Y008117D02*
D03*
X000679Y003497D02*
D03*
X002559Y000787D02*
D03*
X000679D02*
D03*
X002559Y003497D02*
D03*
D63*
X017912Y007087D02*
D03*
X018635D02*
D03*
X017551Y006725D02*
D03*
X018274D02*
D03*
X018996D02*
D03*
X017912Y006364D02*
D03*
X018635D02*
D03*
X017551Y006003D02*
D03*
X018274D02*
D03*
X018996D02*
D03*
X017912Y005642D02*
D03*
X018635D02*
D03*
D64*
X010433Y005217D02*
D03*
M02*
