G04*
G04 #@! TF.GenerationSoftware,Altium Limited,Altium Designer,21.3.2 (30)*
G04*
G04 Layer_Color=16711935*
%FSTAX24Y24*%
%MOIN*%
G70*
G04*
G04 #@! TF.SameCoordinates,FE128C83-0F67-4140-98D3-9062B7FE4468*
G04*
G04*
G04 #@! TF.FilePolarity,Positive*
G04*
G01*
G75*
%ADD10C,0.0079*%
%ADD14C,0.0039*%
%ADD89C,0.0118*%
D10*
X01189Y00624D02*
X01252D01*
X01189D02*
Y006555D01*
X01252D01*
Y00624D02*
Y006555D01*
X01189Y007126D02*
X01252D01*
X01189D02*
Y007441D01*
X01252D01*
Y007126D02*
Y007441D01*
X01502Y016615D02*
Y016906D01*
Y017506D02*
Y017796D01*
X014656Y016615D02*
X01502D01*
X014656Y017796D02*
X01502D01*
X014449Y017127D02*
Y017285D01*
X005945Y005039D02*
X00626D01*
X005945Y004409D02*
Y005039D01*
Y004409D02*
X00626D01*
Y005039D01*
X019272Y017127D02*
Y017285D01*
X019478Y017796D02*
X019843D01*
X019478Y016615D02*
X019843D01*
Y017506D02*
Y017796D01*
Y016615D02*
Y016906D01*
X022224Y007323D02*
Y007638D01*
Y007323D02*
X022854D01*
Y007638D01*
X022224D02*
X022854D01*
X01252Y005453D02*
Y005768D01*
X01189D02*
X01252D01*
X01189Y005453D02*
Y005768D01*
Y005453D02*
X01252D01*
X00628Y005768D02*
Y006398D01*
X005965Y005768D02*
X00628D01*
X005965D02*
Y006398D01*
X00628D01*
D14*
X002687Y029852D02*
Y031171D01*
X002037Y029852D02*
Y031171D01*
X002687D01*
X002037Y029852D02*
X002687D01*
D89*
X012169Y006168D02*
X012234Y006102D01*
X012366D01*
X012431Y006168D01*
Y00643D01*
X012366Y006496D01*
X012234D01*
X012169Y00643D01*
X012038Y006168D02*
X011972Y006102D01*
X011841D01*
X011775Y006168D01*
Y006234D01*
X011841Y006299D01*
X011775Y006365D01*
Y00643D01*
X011841Y006496D01*
X011972D01*
X012038Y00643D01*
Y006365D01*
X011972Y006299D01*
X012038Y006234D01*
Y006168D01*
X011972Y006299D02*
X011841D01*
X012169Y007054D02*
X012234Y006988D01*
X012366D01*
X012431Y007054D01*
Y007316D01*
X012366Y007382D01*
X012234D01*
X012169Y007316D01*
X012038D02*
X011972Y007382D01*
X011841D01*
X011775Y007316D01*
Y007054D01*
X011841Y006988D01*
X011972D01*
X012038Y007054D01*
Y00712D01*
X011972Y007185D01*
X011775D01*
X008922Y029813D02*
Y030207D01*
X009053Y030075D01*
X009184Y030207D01*
Y029813D01*
X009512Y030207D02*
X009381D01*
X009316Y030141D01*
Y029879D01*
X009381Y029813D01*
X009512D01*
X009578Y029879D01*
Y030141D01*
X009512Y030207D01*
X009709D02*
Y029944D01*
X00984Y029813D01*
X009972Y029944D01*
Y030207D01*
X010103Y029813D02*
X010234D01*
X010168D01*
Y030207D01*
X010103Y030141D01*
X002242Y031107D02*
X002635D01*
Y03091D01*
X00257Y030845D01*
X002439D01*
X002373Y03091D01*
Y031107D01*
Y030976D02*
X002242Y030845D01*
Y030517D02*
X002635D01*
X002439Y030714D01*
Y030451D01*
X014824Y019252D02*
Y019646D01*
X014627D01*
X014561Y01958D01*
Y019318D01*
X014627Y019252D01*
X014824D01*
X014168Y019646D02*
X01443D01*
X014168Y019383D01*
Y019318D01*
X014233Y019252D01*
X014365D01*
X01443Y019318D01*
X020237Y01935D02*
Y019744D01*
X02004D01*
X019975Y019678D01*
Y019416D01*
X02004Y01935D01*
X020237D01*
X019844Y019744D02*
X019712D01*
X019778D01*
Y01935D01*
X019844Y019416D01*
X022575Y00771D02*
X02251Y007775D01*
X022379D01*
X022313Y00771D01*
Y007447D01*
X022379Y007382D01*
X02251D01*
X022575Y007447D01*
X022707Y007775D02*
X022969D01*
Y00771D01*
X022707Y007447D01*
Y007382D01*
X012169Y005381D02*
X012234Y005315D01*
X012366D01*
X012431Y005381D01*
Y005643D01*
X012366Y005709D01*
X012234D01*
X012169Y005643D01*
X012038Y005709D02*
X011906D01*
X011972D01*
Y005315D01*
X012038Y005381D01*
M02*
