G04*
G04 #@! TF.GenerationSoftware,Altium Limited,Altium Designer,21.3.2 (30)*
G04*
G04 Layer_Color=16711935*
%FSTAX24Y24*%
%MOIN*%
G70*
G04*
G04 #@! TF.SameCoordinates,FE128C83-0F67-4140-98D3-9062B7FE4468*
G04*
G04*
G04 #@! TF.FilePolarity,Negative*
G04*
G01*
G75*
%ADD40R,0.0434X0.0552*%
%ADD51C,0.0671*%
%ADD52R,0.0671X0.0671*%
%ADD53C,0.0867*%
G04:AMPARAMS|DCode=54|XSize=106.4mil|YSize=126.1mil|CornerRadius=0mil|HoleSize=0mil|Usage=FLASHONLY|Rotation=180.000|XOffset=0mil|YOffset=0mil|HoleType=Round|Shape=Octagon|*
%AMOCTAGOND54*
4,1,8,0.0266,-0.0631,-0.0266,-0.0631,-0.0532,-0.0364,-0.0532,0.0364,-0.0266,0.0631,0.0266,0.0631,0.0532,0.0364,0.0532,-0.0364,0.0266,-0.0631,0.0*
%
%ADD54OCTAGOND54*%

%ADD55O,0.0830X0.0880*%
%ADD56C,0.0710*%
%ADD57R,0.0710X0.0710*%
%ADD58C,0.1064*%
%ADD59R,0.0710X0.0710*%
%ADD60C,0.1180*%
%ADD61C,0.1280*%
%ADD62C,0.0830*%
%ADD63C,0.0316*%
%ADD64C,0.0395*%
G04:AMPARAMS|DCode=85|XSize=73.4mil|YSize=31.2mil|CornerRadius=6.9mil|HoleSize=0mil|Usage=FLASHONLY|Rotation=270.000|XOffset=0mil|YOffset=0mil|HoleType=Round|Shape=RoundedRectangle|*
%AMROUNDEDRECTD85*
21,1,0.0734,0.0174,0,0,270.0*
21,1,0.0595,0.0312,0,0,270.0*
1,1,0.0138,-0.0087,-0.0298*
1,1,0.0138,-0.0087,0.0298*
1,1,0.0138,0.0087,0.0298*
1,1,0.0138,0.0087,-0.0298*
%
%ADD85ROUNDEDRECTD85*%
%ADD86R,0.0631X0.0867*%
%ADD87R,0.0710X0.0671*%
D40*
X011122Y013386D02*
D03*
X012022D02*
D03*
X013091D02*
D03*
X013991D02*
D03*
D51*
X022835Y011417D02*
D03*
Y010417D02*
D03*
X00128Y013071D02*
D03*
X008366D02*
D03*
X003642Y026299D02*
D03*
D52*
X022835Y009417D02*
D03*
X006004Y026299D02*
D03*
D53*
X007874Y029921D02*
D03*
X010827D02*
D03*
D54*
X005248Y033394D02*
D03*
X003248D02*
D03*
X001248D02*
D03*
D55*
X000886Y031004D02*
D03*
Y028004D02*
D03*
D56*
X002461Y009449D02*
D03*
X008776Y000689D02*
D03*
X007776D02*
D03*
D57*
X002461Y008449D02*
D03*
D58*
X005868Y029931D02*
D03*
X004368Y029911D02*
D03*
D59*
X006776Y000689D02*
D03*
D60*
X019732Y033976D02*
D03*
X021732D02*
D03*
X016921Y033819D02*
D03*
X014921D02*
D03*
D61*
X012697Y020965D02*
D03*
X010335Y026555D02*
D03*
X015135D02*
D03*
X010335Y021752D02*
D03*
X015059D02*
D03*
X022047D02*
D03*
X017323D02*
D03*
X022123Y026555D02*
D03*
X017323D02*
D03*
X019685Y020965D02*
D03*
D62*
X010718Y01076D02*
D03*
X012598Y00805D02*
D03*
X010718D02*
D03*
X012598Y01076D02*
D03*
X006398Y008117D02*
D03*
X004518Y010827D02*
D03*
X006398D02*
D03*
X004518Y008117D02*
D03*
X000679Y003497D02*
D03*
X002559Y000787D02*
D03*
X000679D02*
D03*
X002559Y003497D02*
D03*
D63*
X017912Y007087D02*
D03*
X018635D02*
D03*
X017551Y006725D02*
D03*
X018274D02*
D03*
X018996D02*
D03*
X017912Y006364D02*
D03*
X018635D02*
D03*
X017551Y006003D02*
D03*
X018274D02*
D03*
X018996D02*
D03*
X017912Y005642D02*
D03*
X018635D02*
D03*
D64*
X010433Y005217D02*
D03*
D85*
X01013Y016683D02*
D03*
X01113D02*
D03*
Y014222D02*
D03*
X01013D02*
D03*
X021941D02*
D03*
X022941D02*
D03*
Y016683D02*
D03*
X021941D02*
D03*
D86*
X022835Y003543D02*
D03*
Y006063D02*
D03*
D87*
X02313Y019193D02*
D03*
Y018012D02*
D03*
X021457Y019193D02*
D03*
Y018012D02*
D03*
X009055Y018996D02*
D03*
Y017815D02*
D03*
X011122Y018996D02*
D03*
Y017815D02*
D03*
M02*
