G04*
G04 #@! TF.GenerationSoftware,Altium Limited,Altium Designer,21.3.2 (30)*
G04*
G04 Layer_Physical_Order=1*
G04 Layer_Color=255*
%FSTAX24Y24*%
%MOIN*%
G70*
G04*
G04 #@! TF.SameCoordinates,FE128C83-0F67-4140-98D3-9062B7FE4468*
G04*
G04*
G04 #@! TF.FilePolarity,Positive*
G04*
G01*
G75*
%ADD17C,0.0197*%
%ADD19R,0.0315X0.0354*%
%ADD20R,0.0394X0.0374*%
%ADD21R,0.0394X0.0276*%
%ADD22R,0.0787X0.1575*%
%ADD23R,0.0984X0.0984*%
%ADD24R,0.0354X0.0472*%
%ADD25R,0.0709X0.0512*%
%ADD26R,0.0354X0.0315*%
%ADD27R,0.0374X0.0394*%
%ADD28R,0.0394X0.0472*%
%ADD29O,0.0886X0.0630*%
%ADD30R,0.0524X0.0524*%
%ADD31R,0.0787X0.0354*%
%ADD32R,0.0354X0.0787*%
%ADD33R,0.0945X0.1299*%
%ADD34R,0.0945X0.0394*%
%ADD65C,0.0138*%
%ADD66C,0.0394*%
%ADD67C,0.0591*%
%ADD68R,0.0591X0.0591*%
%ADD69C,0.0787*%
G04:AMPARAMS|DCode=70|XSize=98.4mil|YSize=118.1mil|CornerRadius=0mil|HoleSize=0mil|Usage=FLASHONLY|Rotation=180.000|XOffset=0mil|YOffset=0mil|HoleType=Round|Shape=Octagon|*
%AMOCTAGOND70*
4,1,8,0.0246,-0.0591,-0.0246,-0.0591,-0.0492,-0.0344,-0.0492,0.0344,-0.0246,0.0591,0.0246,0.0591,0.0492,0.0344,0.0492,-0.0344,0.0246,-0.0591,0.0*
%
%ADD70OCTAGOND70*%

%ADD71O,0.0750X0.0800*%
%ADD72C,0.0630*%
%ADD73R,0.0630X0.0630*%
%ADD74C,0.0984*%
%ADD75R,0.0630X0.0630*%
%ADD76C,0.1100*%
%ADD77C,0.1200*%
%ADD78C,0.0750*%
%ADD79C,0.0236*%
%ADD80C,0.0315*%
%ADD81C,0.1969*%
G36*
X004724Y007087D02*
X006693D01*
X007185Y006594D01*
X007776D01*
X007972Y006398D01*
Y006004D01*
X007874Y005906D01*
X006693D01*
X006496Y006102D01*
X006407D01*
X006398Y006104D01*
X005906D01*
X005896Y006102D01*
X004331D01*
X004035Y005807D01*
X003346D01*
X003051Y006102D01*
Y00748D01*
X003248Y007677D01*
X004134D01*
X004724Y007087D01*
D02*
G37*
G36*
X01063Y005709D02*
Y005118D01*
X010039Y004528D01*
X008661D01*
X008169Y00502D01*
X00689D01*
X006398Y005512D01*
X006004D01*
X005807Y005709D01*
Y005906D01*
X005906Y006004D01*
X006398D01*
X006791Y00561D01*
X008465D01*
X008957Y006102D01*
X010236D01*
X01063Y005709D01*
D02*
G37*
G36*
X00502Y005413D02*
X005709Y004724D01*
X007874D01*
X007972Y004626D01*
Y003839D01*
X007677Y003543D01*
X003346D01*
X003051Y003839D01*
Y005118D01*
X003346Y005413D01*
X00502Y005413D01*
D02*
G37*
D17*
X023031Y00688D02*
Y00689D01*
X023375Y007233D02*
Y009877D01*
X023031Y00689D02*
X023375Y007233D01*
X022933Y006791D02*
X022943D01*
X023031Y00688D01*
X022933Y005157D02*
Y006791D01*
X021754Y003978D02*
X022933Y005157D01*
X021226Y003911D02*
X021293Y003978D01*
X021754D01*
X022835Y010417D02*
X023375Y009877D01*
X023041Y012795D02*
X023375Y012461D01*
X022835Y010417D02*
X023375Y010958D01*
Y012461D01*
X022441Y012795D02*
X022475Y012829D01*
X022441Y012795D02*
X023041D01*
X022475Y012829D02*
Y013223D01*
X022539Y013287D01*
D19*
X01189Y006398D02*
D03*
X01252D02*
D03*
X01189Y007283D02*
D03*
X01252D02*
D03*
X022224Y00748D02*
D03*
X022854D02*
D03*
X01252Y00561D02*
D03*
X01189D02*
D03*
D20*
X012598Y009055D02*
D03*
X012008D02*
D03*
X018504Y018504D02*
D03*
X017913D02*
D03*
X020669Y013583D02*
D03*
X020079D02*
D03*
X021555Y011516D02*
D03*
X020965D02*
D03*
X022539Y013287D02*
D03*
X021949D02*
D03*
X013091Y018504D02*
D03*
X013681D02*
D03*
X015748Y013583D02*
D03*
X015157D02*
D03*
X022343Y006791D02*
D03*
X022933D02*
D03*
D21*
X015246Y017196D02*
D03*
X014284Y016834D02*
D03*
X014281Y017578D02*
D03*
X019104D02*
D03*
X019106Y016834D02*
D03*
X020069Y017196D02*
D03*
D22*
X003642Y004469D02*
D03*
Y006752D02*
D03*
D23*
X022933Y005157D02*
D03*
Y003701D02*
D03*
D24*
X015157Y018504D02*
D03*
X014257D02*
D03*
X019994D02*
D03*
X019094D02*
D03*
D25*
X002362Y031102D02*
D03*
Y029921D02*
D03*
D26*
X006102Y005039D02*
D03*
Y004409D02*
D03*
X006122Y005768D02*
D03*
Y006398D02*
D03*
D27*
X013583Y017421D02*
D03*
Y016831D02*
D03*
X012894Y017421D02*
D03*
Y016831D02*
D03*
X018406Y017421D02*
D03*
Y016831D02*
D03*
X017717Y017421D02*
D03*
Y016831D02*
D03*
X015512Y011594D02*
D03*
Y012185D02*
D03*
X014843Y011594D02*
D03*
Y012185D02*
D03*
X013878Y011614D02*
D03*
Y012205D02*
D03*
X013189Y011614D02*
D03*
Y012205D02*
D03*
D28*
X013307Y019488D02*
D03*
X014608D02*
D03*
X01872Y019587D02*
D03*
X020021D02*
D03*
D29*
X01752Y014559D02*
D03*
Y015559D02*
D03*
X020866D02*
D03*
Y014559D02*
D03*
X012402D02*
D03*
Y015559D02*
D03*
X015748D02*
D03*
Y014559D02*
D03*
D30*
X017551Y007087D02*
D03*
X018274D02*
D03*
X018996D02*
D03*
X017551Y006364D02*
D03*
X018274D02*
D03*
X018996D02*
D03*
X017551Y005642D02*
D03*
X018274D02*
D03*
X018996D02*
D03*
D31*
X014533Y003411D02*
D03*
Y003911D02*
D03*
Y004411D02*
D03*
Y004911D02*
D03*
Y005411D02*
D03*
Y005911D02*
D03*
Y006411D02*
D03*
Y006911D02*
D03*
Y007411D02*
D03*
Y007911D02*
D03*
Y008411D02*
D03*
Y008911D02*
D03*
Y009411D02*
D03*
Y009911D02*
D03*
X021226D02*
D03*
Y009411D02*
D03*
Y008911D02*
D03*
Y008411D02*
D03*
Y007911D02*
D03*
Y007411D02*
D03*
Y006911D02*
D03*
Y006411D02*
D03*
Y005911D02*
D03*
Y005411D02*
D03*
Y004911D02*
D03*
Y004411D02*
D03*
Y003911D02*
D03*
Y003411D02*
D03*
D32*
X01563Y010305D02*
D03*
X01613D02*
D03*
X01663D02*
D03*
X01713D02*
D03*
X01763D02*
D03*
X01813D02*
D03*
X01863D02*
D03*
X01913D02*
D03*
X01963D02*
D03*
X02013D02*
D03*
D33*
X009508Y005315D02*
D03*
D34*
X007224Y004409D02*
D03*
Y005315D02*
D03*
Y00622D02*
D03*
D65*
X022335Y006143D02*
Y006788D01*
X022146Y005023D02*
Y005953D01*
X022335Y006143D01*
X022244Y00689D02*
X022343Y006791D01*
X022244Y00689D02*
Y007372D01*
X022146Y007382D02*
X022234D01*
X022244Y007372D01*
X022224Y00748D02*
Y007953D01*
X022835Y008563D01*
Y007972D02*
X022854Y007953D01*
Y00748D02*
Y007953D01*
X020571Y0119D02*
X020955Y011516D01*
X020571Y0119D02*
Y011909D01*
X020955Y011516D02*
X020965D01*
X020079D02*
Y013583D01*
Y011516D02*
X020902Y010693D01*
X021555Y011024D02*
Y011516D01*
X021555Y011516D01*
X021555Y010647D02*
Y011024D01*
X021949Y013287D02*
X022047Y013189D01*
Y008425D02*
Y013189D01*
X021642Y00802D02*
X022047Y008425D01*
X021949Y013287D02*
Y013681D01*
X008563Y002067D02*
X011614Y005118D01*
X002559Y000787D02*
X003839Y002067D01*
X008563D01*
X022598Y00374D02*
X022638Y003701D01*
X022146Y00374D02*
X022598D01*
X016308Y015157D02*
X016339D01*
X015906Y015559D02*
X016308Y015157D01*
X015618Y015559D02*
X015906D01*
X018424Y027656D02*
X019016Y028248D01*
X018424Y027656D02*
Y027656D01*
X019016Y028248D02*
X022638D01*
X012303Y016437D02*
Y018307D01*
X011713Y015846D02*
X012303Y016437D01*
X011713Y01512D02*
Y015846D01*
X012303Y018307D02*
X0125Y018504D01*
X012795Y012697D02*
Y012697D01*
Y012697D02*
X013071Y012421D01*
X016009Y012368D02*
X016043Y012402D01*
X015694Y012368D02*
X016009D01*
X023228Y003996D02*
Y004331D01*
X009843Y010532D02*
Y013069D01*
X010138Y013364D01*
Y013386D01*
X004823Y006299D02*
X006083Y005039D01*
X006102D01*
X004724Y006299D02*
X004823D01*
X022933Y003701D02*
X023228Y003996D01*
X022348Y003411D02*
X022638Y003701D01*
X022933D01*
X022835Y008563D02*
Y009417D01*
X01564Y012313D02*
X015694Y012368D01*
X015512Y012185D02*
Y012195D01*
X01563Y012313D01*
X01564D01*
X015124Y012761D02*
X015157Y012795D01*
X014843Y012185D02*
Y012579D01*
X015025Y012761D02*
X015124D01*
X01503Y013465D02*
X015148Y013583D01*
X01503Y013455D02*
Y013465D01*
X01437Y012795D02*
X01503Y013455D01*
X015148Y013583D02*
X015157D01*
X014843Y012579D02*
X015025Y012761D01*
X01437Y010925D02*
Y012795D01*
X020079Y011024D02*
X020104Y010998D01*
Y010331D02*
Y010998D01*
Y010331D02*
X02013Y010305D01*
X020902Y01002D02*
Y010693D01*
X020975Y015559D02*
X021457Y015078D01*
X020866Y015559D02*
X020975D01*
X021457Y015059D02*
Y015078D01*
X020768Y014461D02*
X020866Y014559D01*
X020768Y013681D02*
Y014461D01*
X020669Y013583D02*
X020768Y013681D01*
X021949D02*
X021949Y013681D01*
X020902Y01002D02*
X02101Y009911D01*
X021226D01*
X016634Y014567D02*
X016638Y014563D01*
X017388D01*
X016831Y01512D02*
X017388Y014563D01*
X014362Y014559D02*
X01437Y014567D01*
X012402Y014559D02*
X014362D01*
X011319Y007283D02*
X01189D01*
X01378Y003445D02*
X013796Y003428D01*
X014517D02*
X014533Y003411D01*
X013796Y003428D02*
X014517D01*
X011801Y005699D02*
Y005817D01*
X011516Y006102D02*
X011801Y005817D01*
Y005699D02*
X01189Y00561D01*
Y006378D02*
Y006398D01*
X011648Y006136D02*
X01189Y006378D01*
X01155Y006136D02*
X011648D01*
X011516Y006102D02*
X01155Y006136D01*
X017392Y014559D02*
X01752D01*
X013583Y012747D02*
X01376Y01257D01*
X013583Y012747D02*
Y012795D01*
X01376Y012323D02*
X013878Y012205D01*
X01376Y012323D02*
Y01257D01*
X013071Y012323D02*
X013189Y012205D01*
X013071Y012323D02*
Y012421D01*
X01188Y008937D02*
X011998Y009055D01*
X01188Y008927D02*
Y008937D01*
X011713Y008268D02*
Y00876D01*
X011998Y009055D02*
X012008D01*
X011713Y00876D02*
X01188Y008927D01*
X009508Y005315D02*
X010138D01*
X010433Y00561D01*
X01378Y010335D02*
X01437Y010925D01*
X021555Y010647D02*
X021787Y010415D01*
Y009665D02*
Y010415D01*
X020346Y015653D02*
X020772D01*
X020866Y015559D01*
X019106Y016834D02*
X019166D01*
X020346Y015653D01*
X018407Y016832D02*
X019105D01*
X018406Y016831D02*
X018407Y016832D01*
X019105D02*
X019106Y016834D01*
X014284D02*
X014343D01*
X015618Y015559D01*
X013584Y016832D02*
X014282D01*
X014284Y016834D01*
X013583Y016831D02*
X013584Y016832D01*
X014468Y010433D02*
X014843Y010807D01*
Y011594D01*
X014468Y009976D02*
X014533Y009911D01*
X014468Y009976D02*
Y010433D01*
X021335Y00952D02*
X021642D01*
X021787Y009665D01*
X021226Y009411D02*
X021335Y00952D01*
X021226Y003411D02*
X022348D01*
X010477Y006845D02*
X012092D01*
X007874Y009449D02*
X010477Y006845D01*
X01252Y006398D02*
Y006417D01*
X012092Y006845D02*
X01252Y006417D01*
X004518Y010827D02*
X005896Y009449D01*
X007874D01*
X01252Y005236D02*
Y005709D01*
X012402Y005118D02*
X01252Y005236D01*
X011614Y005118D02*
X012402D01*
X012562Y006454D02*
X014491D01*
X01252Y006496D02*
X012562Y006454D01*
X014491D02*
X014533Y006411D01*
X013277Y007283D02*
X013649Y006911D01*
X014533D01*
X01252Y007283D02*
X013277D01*
X01252D02*
X012559Y007323D01*
Y008011D02*
X012598Y00805D01*
X012559Y007323D02*
Y008011D01*
X009843Y010532D02*
X01063Y009744D01*
X012205D01*
X0125Y009154D02*
Y009449D01*
X012205Y009744D02*
X0125Y009449D01*
Y009154D02*
X012598Y009055D01*
X014118Y00752D02*
X014425D01*
X012726Y008911D02*
X014118Y00752D01*
X012608Y009055D02*
X012726Y008937D01*
X014425Y00752D02*
X014533Y007411D01*
X012726Y008911D02*
Y008937D01*
X012598Y009055D02*
X012608D01*
X007224Y005315D02*
X009508D01*
X006122Y006398D02*
X006142D01*
X006319Y00622D02*
X007224D01*
X006142Y006398D02*
X006319Y00622D01*
X006506Y005768D02*
X006821Y005453D01*
Y005443D02*
X006949Y005315D01*
X006122Y005768D02*
X006506D01*
X006821Y005443D02*
Y005453D01*
X006949Y005315D02*
X007224D01*
X007776Y000787D02*
X011811Y004823D01*
X012831D02*
X01342Y005411D01*
X011811Y004823D02*
X012831D01*
X007776Y000689D02*
Y000787D01*
X013361Y005709D02*
X013564Y005911D01*
X01252Y005709D02*
X013361D01*
X013564Y005911D02*
X014533D01*
X01378Y009843D02*
Y010335D01*
Y009843D02*
X014102Y00952D01*
X014425D02*
X014533Y009411D01*
X014102Y00952D02*
X014425D01*
X013484Y009653D02*
X014118Y00902D01*
X014425D01*
X014118Y00852D02*
X014425D01*
X013484Y009653D02*
Y010483D01*
X013189Y009448D02*
X014118Y00852D01*
X013484Y010483D02*
X013878Y010877D01*
X014425Y00852D02*
X014533Y008411D01*
X013189Y009448D02*
Y011614D01*
X014425Y00902D02*
X014533Y008911D01*
X013878Y010877D02*
Y011614D01*
X012402Y015559D02*
X01252D01*
X012894Y015933D02*
Y016831D01*
X01252Y015559D02*
X012894Y015933D01*
X008776Y000689D02*
Y001349D01*
X010102Y002675D02*
Y002675D01*
X008776Y001349D02*
X010102Y002675D01*
X013273Y004911D02*
X014533D01*
X012899Y004537D02*
X013273Y004911D01*
X011964Y004537D02*
X012899D01*
X010102Y002675D02*
X011964Y004537D01*
X01342Y005411D02*
X014533D01*
X015571Y010364D02*
X01563Y010305D01*
X015571Y010364D02*
Y011535D01*
X015512Y011594D02*
X015571Y011535D01*
X021226Y007911D02*
X021335Y00802D01*
X021642D01*
X021335Y00452D02*
X021642D01*
X021226Y004411D02*
X021335Y00452D01*
X021642D02*
X022146Y005023D01*
X0125Y018504D02*
X013091D01*
X011713Y01512D02*
X012274Y014559D01*
X01752Y018504D02*
X017913D01*
X016831Y017815D02*
X01752Y018504D01*
X016831Y01512D02*
Y017815D01*
X015748Y013583D02*
Y014559D01*
Y013583D02*
X015748Y013583D01*
X017618Y015657D02*
Y016732D01*
X01752Y015559D02*
X017618Y015657D01*
Y016732D02*
X017717Y016831D01*
Y017421D02*
X018406D01*
X018552Y017578D02*
X019104D01*
X018406Y017431D02*
X018552Y017578D01*
X018406Y017421D02*
Y017431D01*
X020008Y018517D02*
Y019613D01*
X019994Y017265D02*
Y018504D01*
Y017265D02*
X020063Y017196D01*
X020069D01*
X019994Y018504D02*
X020008Y018517D01*
Y019613D02*
X020021Y019626D01*
X018041Y018622D02*
Y018868D01*
X017913Y018504D02*
X017923D01*
X01872Y019547D02*
Y019587D01*
X018041Y018868D02*
X01872Y019547D01*
X017923Y018504D02*
X018041Y018622D01*
X018504Y018504D02*
X019094D01*
X015157D02*
X015202Y01846D01*
Y01724D02*
X015246Y017196D01*
X015202Y01724D02*
Y01846D01*
X013739Y017578D02*
X014281D01*
X013583Y017421D02*
Y017431D01*
X013701Y017549D01*
X013711D01*
X013739Y017578D01*
X012894Y017421D02*
X013583D01*
X013681Y018504D02*
X014257D01*
X013091D02*
Y019232D01*
X013307Y019449D01*
Y019488D01*
X014775Y019321D02*
X015157Y018939D01*
X014736Y019321D02*
X014775D01*
X014608Y019449D02*
X014736Y019321D01*
X015157Y018504D02*
Y018939D01*
X014608Y019449D02*
Y019488D01*
X017323Y026555D02*
X018424Y027656D01*
D66*
X003051Y009449D02*
X003642Y008858D01*
Y01122D01*
Y006752D02*
Y008858D01*
X002461Y009449D02*
X003051D01*
X003642Y01122D02*
X005492Y013071D01*
X015135Y025417D02*
Y026555D01*
Y025417D02*
X015846Y024705D01*
X018026D01*
X013386D02*
X015135Y026454D01*
Y026555D01*
X003346Y024705D02*
X013386D01*
X010592Y021495D02*
X012559Y019528D01*
X014608D02*
X015059Y019979D01*
Y021544D01*
X006122Y006398D02*
X006516Y006791D01*
X006594D01*
X012274Y014559D02*
X012402D01*
X002768D02*
X012274D01*
X00128Y013071D02*
X002768Y014559D01*
X005492Y013071D02*
X008366D01*
X004232Y005059D02*
X004232Y005059D01*
X003642Y004862D02*
X003839Y005059D01*
X004232D01*
X001862Y006642D02*
X003642Y004862D01*
X00128Y007224D02*
X001862Y006642D01*
Y00785D01*
X002461Y008449D01*
X003642Y006752D02*
X005768D01*
X006122Y006398D01*
X003642Y004469D02*
Y004862D01*
X00128Y007224D02*
Y013071D01*
X001274Y030911D02*
X002264Y029921D01*
X000886Y031004D02*
X000979Y030911D01*
X002264Y029921D02*
X002362D01*
X000979Y030911D02*
X001274D01*
X001248Y033295D02*
Y033394D01*
Y033295D02*
X002362Y032181D01*
Y031102D02*
Y032181D01*
X003642Y026299D02*
X005868Y028526D01*
Y029931D01*
X005873Y029926D02*
X007869D01*
X007874Y029921D01*
X005868Y029931D02*
X005873Y029926D01*
X003248Y033295D02*
X004368Y032175D01*
Y029911D02*
Y032175D01*
X003248Y033295D02*
Y033394D01*
X002362Y025689D02*
Y027905D01*
Y025689D02*
X003346Y024705D01*
X012559Y019528D02*
X013307D01*
X020021Y019626D02*
X022047Y021652D01*
Y021752D01*
X017323Y020374D02*
X01811Y019587D01*
X01872D01*
X017323Y020374D02*
Y021752D01*
X002362Y027905D02*
X004368Y029911D01*
X018026Y024705D02*
X019876Y026555D01*
X022123D01*
X013307Y019488D02*
Y019528D01*
X014608Y019488D02*
Y019528D01*
X012697Y020965D02*
X012795Y021063D01*
D67*
X022835Y011417D02*
D03*
Y010417D02*
D03*
X00128Y013071D02*
D03*
X008366D02*
D03*
X003642Y026299D02*
D03*
D68*
X022835Y009417D02*
D03*
X006004Y026299D02*
D03*
D69*
X007874Y029921D02*
D03*
X010827D02*
D03*
D70*
X005248Y033394D02*
D03*
X003248D02*
D03*
X001248D02*
D03*
D71*
X000886Y031004D02*
D03*
Y028004D02*
D03*
D72*
X002461Y009449D02*
D03*
X008776Y000689D02*
D03*
X007776D02*
D03*
D73*
X002461Y008449D02*
D03*
D74*
X005868Y029931D02*
D03*
X004368Y029911D02*
D03*
D75*
X006776Y000689D02*
D03*
D76*
X019732Y033976D02*
D03*
X021732D02*
D03*
X016921Y033819D02*
D03*
X014921D02*
D03*
D77*
X012697Y020965D02*
D03*
X010335Y026555D02*
D03*
X015135D02*
D03*
X010335Y021752D02*
D03*
X015059D02*
D03*
X022047D02*
D03*
X017323D02*
D03*
X022123Y026555D02*
D03*
X017323D02*
D03*
X019685Y020965D02*
D03*
D78*
X010718Y01076D02*
D03*
X012598Y00805D02*
D03*
X010718D02*
D03*
X012598Y01076D02*
D03*
X006398Y008117D02*
D03*
X004518Y010827D02*
D03*
X006398D02*
D03*
X004518Y008117D02*
D03*
X000679Y003497D02*
D03*
X002559Y000787D02*
D03*
X000679D02*
D03*
X002559Y003497D02*
D03*
D79*
X017912Y007087D02*
D03*
X018635D02*
D03*
X017551Y006725D02*
D03*
X018274D02*
D03*
X018996D02*
D03*
X017912Y006364D02*
D03*
X018635D02*
D03*
X017551Y006003D02*
D03*
X018274D02*
D03*
X018996D02*
D03*
X017912Y005642D02*
D03*
X018635D02*
D03*
D80*
X022146Y005906D02*
D03*
X020571Y011909D02*
D03*
X021555Y011024D02*
D03*
X010433Y005217D02*
D03*
X022146Y00374D02*
D03*
X022835Y007972D02*
D03*
X016339Y015157D02*
D03*
X022638Y028248D02*
D03*
X012795Y012697D02*
D03*
X016043Y012402D02*
D03*
X023228Y004331D02*
D03*
X006594Y006791D02*
D03*
X010138Y013386D02*
D03*
X015157Y012795D02*
D03*
X020079Y011024D02*
D03*
X021457Y015059D02*
D03*
X021949Y013681D02*
D03*
X016634Y014567D02*
D03*
X01437D02*
D03*
X011319Y007283D02*
D03*
X01378Y003445D02*
D03*
X011516Y006102D02*
D03*
X022441Y012795D02*
D03*
X013583D02*
D03*
X011713Y008268D02*
D03*
X010433Y00561D02*
D03*
X014468Y010433D02*
D03*
D81*
X011811Y03622D02*
D03*
Y002756D02*
D03*
M02*
