G04*
G04 #@! TF.GenerationSoftware,Altium Limited,Altium Designer,21.3.2 (30)*
G04*
G04 Layer_Color=2752767*
%FSTAX24Y24*%
%MOIN*%
G70*
G04*
G04 #@! TF.SameCoordinates,FE128C83-0F67-4140-98D3-9062B7FE4468*
G04*
G04*
G04 #@! TF.FilePolarity,Positive*
G04*
G01*
G75*
%ADD92C,0.0020*%
%ADD93C,0.0027*%
%ADD94C,0.0013*%
D92*
X022755Y011337D02*
Y011497D01*
X022915D01*
Y011337D01*
X022755D01*
Y010337D02*
Y010497D01*
X022915D01*
Y010337D01*
X022755D01*
Y009337D02*
Y009497D01*
X022915D01*
Y009337D01*
X022755D01*
X005248Y033314D02*
X005168Y033474D01*
X005328D01*
X005248Y033314D01*
X003248D02*
X003168Y033474D01*
X003328D01*
X003248Y033314D01*
X001248D02*
X001168Y033474D01*
X001328D01*
X001248Y033314D01*
X000886Y030924D02*
X000926Y030964D01*
X000966D01*
X000926Y031004D01*
X000966Y031044D01*
X000926D01*
X000886Y031084D01*
X000846Y031044D01*
X000806D01*
X000846Y031004D01*
X000806Y030964D01*
X000846D01*
X000886Y030924D01*
Y027924D02*
X000926Y027964D01*
X000966D01*
X000926Y028004D01*
X000966Y028044D01*
X000926D01*
X000886Y028084D01*
X000846Y028044D01*
X000806D01*
X000846Y028004D01*
X000806Y027964D01*
X000846D01*
X000886Y027924D01*
X002381Y009369D02*
X002421Y009449D01*
X002381Y009529D01*
X002461Y009489D01*
X002541Y009529D01*
X002501Y009449D01*
X002541Y009369D01*
X002461Y009409D01*
X002381Y009369D01*
Y008369D02*
X002421Y008449D01*
X002381Y008529D01*
X002461Y008489D01*
X002541Y008529D01*
X002501Y008449D01*
X002541Y008369D01*
X002461Y008409D01*
X002381Y008369D01*
X008696Y000609D02*
X008736Y000689D01*
X008696Y000769D01*
X008776Y000729D01*
X008856Y000769D01*
X008816Y000689D01*
X008856Y000609D01*
X008776Y000649D01*
X008696Y000609D01*
X007696D02*
X007736Y000689D01*
X007696Y000769D01*
X007776Y000729D01*
X007856Y000769D01*
X007816Y000689D01*
X007856Y000609D01*
X007776Y000649D01*
X007696Y000609D01*
X006696D02*
X006736Y000689D01*
X006696Y000769D01*
X006776Y000729D01*
X006856Y000769D01*
X006816Y000689D01*
X006856Y000609D01*
X006776Y000649D01*
X006696Y000609D01*
X019692Y033936D02*
Y033896D01*
X019772D01*
Y033936D01*
X019812D01*
Y034016D01*
X019772D01*
Y034056D01*
X019692D01*
Y034016D01*
X019652D01*
Y033936D01*
X019692D01*
X021692D02*
Y033896D01*
X021772D01*
Y033936D01*
X021812D01*
Y034016D01*
X021772D01*
Y034056D01*
X021692D01*
Y034016D01*
X021652D01*
Y033936D01*
X021692D01*
X012617Y020885D02*
X012657D01*
X012697Y020925D01*
X012737Y020885D01*
X012777D01*
Y020925D01*
X012737Y020965D01*
X012777Y021005D01*
Y021045D01*
X012737D01*
X012697Y021005D01*
X012657Y021045D01*
X012617D01*
Y021005D01*
X012657Y020965D01*
X012617Y020925D01*
Y020885D01*
X010255Y026475D02*
X010295D01*
X010335Y026515D01*
X010375Y026475D01*
X010415D01*
Y026515D01*
X010375Y026555D01*
X010415Y026595D01*
Y026635D01*
X010375D01*
X010335Y026595D01*
X010295Y026635D01*
X010255D01*
Y026595D01*
X010295Y026555D01*
X010255Y026515D01*
Y026475D01*
X015055D02*
X015095D01*
X015135Y026515D01*
X015175Y026475D01*
X015215D01*
Y026515D01*
X015175Y026555D01*
X015215Y026595D01*
Y026635D01*
X015175D01*
X015135Y026595D01*
X015095Y026635D01*
X015055D01*
Y026595D01*
X015095Y026555D01*
X015055Y026515D01*
Y026475D01*
X010255Y021672D02*
X010295D01*
X010335Y021712D01*
X010375Y021672D01*
X010415D01*
Y021712D01*
X010375Y021752D01*
X010415Y021792D01*
Y021832D01*
X010375D01*
X010335Y021792D01*
X010295Y021832D01*
X010255D01*
Y021792D01*
X010295Y021752D01*
X010255Y021712D01*
Y021672D01*
X014979D02*
X015019D01*
X015059Y021712D01*
X015099Y021672D01*
X015139D01*
Y021712D01*
X015099Y021752D01*
X015139Y021792D01*
Y021832D01*
X015099D01*
X015059Y021792D01*
X015019Y021832D01*
X014979D01*
Y021792D01*
X015019Y021752D01*
X014979Y021712D01*
Y021672D01*
X010718Y01068D02*
X010758Y01072D01*
X010798D01*
X010758Y01076D01*
X010798Y0108D01*
X010758D01*
X010718Y01084D01*
X010678Y0108D01*
X010638D01*
X010678Y01076D01*
X010638Y01072D01*
X010678D01*
X010718Y01068D01*
X012598Y00797D02*
X012638Y00801D01*
X012678D01*
X012638Y00805D01*
X012678Y00809D01*
X012638D01*
X012598Y00813D01*
X012558Y00809D01*
X012518D01*
X012558Y00805D01*
X012518Y00801D01*
X012558D01*
X012598Y00797D01*
X010718D02*
X010758Y00801D01*
X010798D01*
X010758Y00805D01*
X010798Y00809D01*
X010758D01*
X010718Y00813D01*
X010678Y00809D01*
X010638D01*
X010678Y00805D01*
X010638Y00801D01*
X010678D01*
X010718Y00797D01*
X012598Y01068D02*
X012638Y01072D01*
X012678D01*
X012638Y01076D01*
X012678Y0108D01*
X012638D01*
X012598Y01084D01*
X012558Y0108D01*
X012518D01*
X012558Y01076D01*
X012518Y01072D01*
X012558D01*
X012598Y01068D01*
X006398Y008037D02*
X006438Y008077D01*
X006478D01*
X006438Y008117D01*
X006478Y008157D01*
X006438D01*
X006398Y008197D01*
X006358Y008157D01*
X006318D01*
X006358Y008117D01*
X006318Y008077D01*
X006358D01*
X006398Y008037D01*
X004518Y010747D02*
X004558Y010787D01*
X004598D01*
X004558Y010827D01*
X004598Y010867D01*
X004558D01*
X004518Y010907D01*
X004478Y010867D01*
X004438D01*
X004478Y010827D01*
X004438Y010787D01*
X004478D01*
X004518Y010747D01*
X006398D02*
X006438Y010787D01*
X006478D01*
X006438Y010827D01*
X006478Y010867D01*
X006438D01*
X006398Y010907D01*
X006358Y010867D01*
X006318D01*
X006358Y010827D01*
X006318Y010787D01*
X006358D01*
X006398Y010747D01*
X004518Y008037D02*
X004558Y008077D01*
X004598D01*
X004558Y008117D01*
X004598Y008157D01*
X004558D01*
X004518Y008197D01*
X004478Y008157D01*
X004438D01*
X004478Y008117D01*
X004438Y008077D01*
X004478D01*
X004518Y008037D01*
X000679Y003417D02*
X000719Y003457D01*
X000759D01*
X000719Y003497D01*
X000759Y003537D01*
X000719D01*
X000679Y003577D01*
X000639Y003537D01*
X000599D01*
X000639Y003497D01*
X000599Y003457D01*
X000639D01*
X000679Y003417D01*
X002559Y000707D02*
X002599Y000747D01*
X002639D01*
X002599Y000787D01*
X002639Y000827D01*
X002599D01*
X002559Y000867D01*
X002519Y000827D01*
X002479D01*
X002519Y000787D01*
X002479Y000747D01*
X002519D01*
X002559Y000707D01*
X000679D02*
X000719Y000747D01*
X000759D01*
X000719Y000787D01*
X000759Y000827D01*
X000719D01*
X000679Y000867D01*
X000639Y000827D01*
X000599D01*
X000639Y000787D01*
X000599Y000747D01*
X000639D01*
X000679Y000707D01*
X002559Y003417D02*
X002599Y003457D01*
X002639D01*
X002599Y003497D01*
X002639Y003537D01*
X002599D01*
X002559Y003577D01*
X002519Y003537D01*
X002479D01*
X002519Y003497D01*
X002479Y003457D01*
X002519D01*
X002559Y003417D01*
X017832Y007087D02*
X017912Y007167D01*
X017992Y007087D01*
X017912Y007007D01*
X017832Y007087D01*
X018555D02*
X018635Y007167D01*
X018715Y007087D01*
X018635Y007007D01*
X018555Y007087D01*
X017471Y006725D02*
X017551Y006805D01*
X017631Y006725D01*
X017551Y006645D01*
X017471Y006725D01*
X018194D02*
X018274Y006805D01*
X018354Y006725D01*
X018274Y006645D01*
X018194Y006725D01*
X018916D02*
X018996Y006805D01*
X019076Y006725D01*
X018996Y006645D01*
X018916Y006725D01*
X017832Y006364D02*
X017912Y006444D01*
X017992Y006364D01*
X017912Y006284D01*
X017832Y006364D01*
X018555D02*
X018635Y006444D01*
X018715Y006364D01*
X018635Y006284D01*
X018555Y006364D01*
X017471Y006003D02*
X017551Y006083D01*
X017631Y006003D01*
X017551Y005923D01*
X017471Y006003D01*
X018194D02*
X018274Y006083D01*
X018354Y006003D01*
X018274Y005923D01*
X018194Y006003D01*
X018916D02*
X018996Y006083D01*
X019076Y006003D01*
X018996Y005923D01*
X018916Y006003D01*
X017832Y005642D02*
X017912Y005722D01*
X017992Y005642D01*
X017912Y005562D01*
X017832Y005642D01*
X018555D02*
X018635Y005722D01*
X018715Y005642D01*
X018635Y005562D01*
X018555Y005642D01*
X016881Y033779D02*
Y033739D01*
X016961D01*
Y033779D01*
X017001D01*
Y033859D01*
X016961D01*
Y033899D01*
X016881D01*
Y033859D01*
X016841D01*
Y033779D01*
X016881D01*
X014881D02*
Y033739D01*
X014961D01*
Y033779D01*
X015001D01*
Y033859D01*
X014961D01*
Y033899D01*
X014881D01*
Y033859D01*
X014841D01*
Y033779D01*
X014881D01*
X021967Y021672D02*
X022007D01*
X022047Y021712D01*
X022087Y021672D01*
X022127D01*
Y021712D01*
X022087Y021752D01*
X022127Y021792D01*
Y021832D01*
X022087D01*
X022047Y021792D01*
X022007Y021832D01*
X021967D01*
Y021792D01*
X022007Y021752D01*
X021967Y021712D01*
Y021672D01*
X017243D02*
X017283D01*
X017323Y021712D01*
X017363Y021672D01*
X017403D01*
Y021712D01*
X017363Y021752D01*
X017403Y021792D01*
Y021832D01*
X017363D01*
X017323Y021792D01*
X017283Y021832D01*
X017243D01*
Y021792D01*
X017283Y021752D01*
X017243Y021712D01*
Y021672D01*
X022043Y026475D02*
X022083D01*
X022123Y026515D01*
X022163Y026475D01*
X022203D01*
Y026515D01*
X022163Y026555D01*
X022203Y026595D01*
Y026635D01*
X022163D01*
X022123Y026595D01*
X022083Y026635D01*
X022043D01*
Y026595D01*
X022083Y026555D01*
X022043Y026515D01*
Y026475D01*
X017243D02*
X017283D01*
X017323Y026515D01*
X017363Y026475D01*
X017403D01*
Y026515D01*
X017363Y026555D01*
X017403Y026595D01*
Y026635D01*
X017363D01*
X017323Y026595D01*
X017283Y026635D01*
X017243D01*
Y026595D01*
X017283Y026555D01*
X017243Y026515D01*
Y026475D01*
X019605Y020885D02*
X019645D01*
X019685Y020925D01*
X019725Y020885D01*
X019765D01*
Y020925D01*
X019725Y020965D01*
X019765Y021005D01*
Y021045D01*
X019725D01*
X019685Y021005D01*
X019645Y021045D01*
X019605D01*
Y021005D01*
X019645Y020965D01*
X019605Y020925D01*
Y020885D01*
X022066Y005826D02*
Y005986D01*
X022226D01*
Y005826D01*
X022066D01*
X022106Y005866D02*
Y005946D01*
X022186D01*
Y005866D01*
X022106D01*
X020491Y011829D02*
Y011989D01*
X020651D01*
Y011829D01*
X020491D01*
X020531Y011869D02*
Y011949D01*
X020611D01*
Y011869D01*
X020531D01*
X021475Y010944D02*
Y011104D01*
X021635D01*
Y010944D01*
X021475D01*
X021515Y010984D02*
Y011064D01*
X021595D01*
Y010984D01*
X021515D01*
X010353Y005137D02*
Y005297D01*
X010513D01*
Y005137D01*
X010353D01*
X010393Y005177D02*
Y005257D01*
X010473D01*
Y005177D01*
X010393D01*
X022066Y00366D02*
Y00382D01*
X022226D01*
Y00366D01*
X022066D01*
X022106Y0037D02*
Y00378D01*
X022186D01*
Y0037D01*
X022106D01*
X022755Y007892D02*
Y008052D01*
X022915D01*
Y007892D01*
X022755D01*
X022795Y007932D02*
Y008012D01*
X022875D01*
Y007932D01*
X022795D01*
X016259Y015077D02*
Y015237D01*
X016419D01*
Y015077D01*
X016259D01*
X016299Y015117D02*
Y015197D01*
X016379D01*
Y015117D01*
X016299D01*
X022558Y028168D02*
Y028328D01*
X022718D01*
Y028168D01*
X022558D01*
X022598Y028208D02*
Y028288D01*
X022678D01*
Y028208D01*
X022598D01*
X012715Y012617D02*
Y012777D01*
X012875D01*
Y012617D01*
X012715D01*
X012755Y012657D02*
Y012737D01*
X012835D01*
Y012657D01*
X012755D01*
X015963Y012322D02*
Y012482D01*
X016123D01*
Y012322D01*
X015963D01*
X016003Y012362D02*
Y012442D01*
X016083D01*
Y012362D01*
X016003D01*
X023148Y004251D02*
Y004411D01*
X023308D01*
Y004251D01*
X023148D01*
X023188Y004291D02*
Y004371D01*
X023268D01*
Y004291D01*
X023188D01*
X006514Y006711D02*
Y006871D01*
X006674D01*
Y006711D01*
X006514D01*
X006554Y006751D02*
Y006831D01*
X006634D01*
Y006751D01*
X006554D01*
X010058Y013306D02*
Y013466D01*
X010218D01*
Y013306D01*
X010058D01*
X010098Y013346D02*
Y013426D01*
X010178D01*
Y013346D01*
X010098D01*
X015077Y012715D02*
Y012875D01*
X015237D01*
Y012715D01*
X015077D01*
X015117Y012755D02*
Y012835D01*
X015197D01*
Y012755D01*
X015117D01*
X019999Y010944D02*
Y011104D01*
X020159D01*
Y010944D01*
X019999D01*
X020039Y010984D02*
Y011064D01*
X020119D01*
Y010984D01*
X020039D01*
X021377Y014979D02*
Y015139D01*
X021537D01*
Y014979D01*
X021377D01*
X021417Y015019D02*
Y015099D01*
X021497D01*
Y015019D01*
X021417D01*
X021869Y013601D02*
Y013761D01*
X022029D01*
Y013601D01*
X021869D01*
X021909Y013641D02*
Y013721D01*
X021989D01*
Y013641D01*
X021909D01*
X016554Y014487D02*
Y014647D01*
X016714D01*
Y014487D01*
X016554D01*
X016594Y014527D02*
Y014607D01*
X016674D01*
Y014527D01*
X016594D01*
X01429Y014487D02*
Y014647D01*
X01445D01*
Y014487D01*
X01429D01*
X01433Y014527D02*
Y014607D01*
X01441D01*
Y014527D01*
X01433D01*
X011239Y007203D02*
Y007363D01*
X011399D01*
Y007203D01*
X011239D01*
X011279Y007243D02*
Y007323D01*
X011359D01*
Y007243D01*
X011279D01*
X0137Y003365D02*
Y003525D01*
X01386D01*
Y003365D01*
X0137D01*
X01374Y003405D02*
Y003485D01*
X01382D01*
Y003405D01*
X01374D01*
X011436Y006022D02*
Y006182D01*
X011596D01*
Y006022D01*
X011436D01*
X011476Y006062D02*
Y006142D01*
X011556D01*
Y006062D01*
X011476D01*
X022361Y012715D02*
Y012875D01*
X022521D01*
Y012715D01*
X022361D01*
X022401Y012755D02*
Y012835D01*
X022481D01*
Y012755D01*
X022401D01*
X013503Y012715D02*
Y012875D01*
X013663D01*
Y012715D01*
X013503D01*
X013543Y012755D02*
Y012835D01*
X013623D01*
Y012755D01*
X013543D01*
X011633Y008188D02*
Y008348D01*
X011793D01*
Y008188D01*
X011633D01*
X011673Y008228D02*
Y008308D01*
X011753D01*
Y008228D01*
X011673D01*
X010353Y00553D02*
Y00569D01*
X010513D01*
Y00553D01*
X010353D01*
X010393Y00557D02*
Y00565D01*
X010473D01*
Y00557D01*
X010393D01*
X014389Y010353D02*
Y010513D01*
X014548D01*
Y010353D01*
X014389D01*
X014428Y010393D02*
Y010473D01*
X014509D01*
Y010393D01*
X014428D01*
D93*
X007954Y029921D02*
G03*
X007954Y029921I-00008J0D01*
G01*
X010907D02*
G03*
X010907Y029921I-00008J0D01*
G01*
X00136Y013071D02*
G03*
X00136Y013071I-00008J0D01*
G01*
X008446D02*
G03*
X008446Y013071I-00008J0D01*
G01*
X003722Y026299D02*
G03*
X003722Y026299I-00008J0D01*
G01*
X006084D02*
G03*
X006084Y026299I-00008J0D01*
G01*
X005948Y029931D02*
G03*
X005948Y029931I-00008J0D01*
G01*
X004448Y029911D02*
G03*
X004448Y029911I-00008J0D01*
G01*
X011891Y03622D02*
G03*
X011891Y03622I-00008J0D01*
G01*
Y002756D02*
G03*
X011891Y002756I-00008J0D01*
G01*
D94*
X011851Y03622D02*
G03*
X011851Y03622I-00004J0D01*
G01*
Y002756D02*
G03*
X011851Y002756I-00004J0D01*
G01*
M02*
