G04*
G04 #@! TF.GenerationSoftware,Altium Limited,Altium Designer,21.3.2 (30)*
G04*
G04 Layer_Color=16711935*
%FSTAX24Y24*%
%MOIN*%
G70*
G04*
G04 #@! TF.SameCoordinates,FE128C83-0F67-4140-98D3-9062B7FE4468*
G04*
G04*
G04 #@! TF.FilePolarity,Positive*
G04*
G01*
G75*
%ADD10C,0.0079*%
%ADD14C,0.0039*%
%ADD16C,0.0050*%
%ADD89C,0.0118*%
D10*
X009937Y017337D02*
G03*
X009937Y017337I-000039J0D01*
G01*
X021748D02*
G03*
X021748Y017337I-000039J0D01*
G01*
X006122Y02748D02*
G03*
X006122Y02748I-000039J0D01*
G01*
X021856Y003415D02*
G03*
X021856Y003415I-000039J0D01*
G01*
X007185Y03063D02*
X011526D01*
Y029272D02*
Y03063D01*
X007185Y029272D02*
X011526D01*
X007185D02*
Y03063D01*
D14*
X012618Y008898D02*
Y009213D01*
X011988Y008898D02*
Y009213D01*
Y008898D02*
X012618D01*
X011988Y009213D02*
X012618D01*
X018524Y018346D02*
Y018661D01*
X017894Y018346D02*
Y018661D01*
Y018346D02*
X018524D01*
X017894Y018661D02*
X018524D01*
X01374Y016811D02*
Y017441D01*
X013425Y016811D02*
Y017441D01*
X01374D01*
X013425Y016811D02*
X01374D01*
X013051D02*
Y017441D01*
X012736Y016811D02*
Y017441D01*
X013051D01*
X012736Y016811D02*
X013051D01*
X013227Y019168D02*
X014687D01*
X013227D02*
Y019808D01*
X014687D01*
Y019168D02*
Y019808D01*
X018641Y019267D02*
X020101D01*
X018641D02*
Y019907D01*
X020101D01*
Y019267D02*
Y019907D01*
X018563Y016811D02*
Y017441D01*
X018248Y016811D02*
Y017441D01*
X018563D01*
X018248Y016811D02*
X018563D01*
X017874D02*
Y017441D01*
X017559Y016811D02*
Y017441D01*
X017874D01*
X017559Y016811D02*
X017874D01*
X020059Y013425D02*
X020689D01*
X020059Y01374D02*
X020689D01*
Y013425D02*
Y01374D01*
X020059Y013425D02*
Y01374D01*
X020945Y011358D02*
X021575D01*
X020945Y011673D02*
X021575D01*
Y011358D02*
Y011673D01*
X020945Y011358D02*
Y011673D01*
X021929Y01313D02*
X022559D01*
X021929Y013445D02*
X022559D01*
Y01313D02*
Y013445D01*
X021929Y01313D02*
Y013445D01*
X015354Y011575D02*
Y012205D01*
X015669Y011575D02*
Y012205D01*
X015354Y011575D02*
X015669D01*
X015354Y012205D02*
X015669D01*
X014685Y011575D02*
Y012205D01*
X015Y011575D02*
Y012205D01*
X014685Y011575D02*
X015D01*
X014685Y012205D02*
X015D01*
X01372Y011594D02*
Y012224D01*
X014035Y011594D02*
Y012224D01*
X01372Y011594D02*
X014035D01*
X01372Y012224D02*
X014035D01*
X013032Y011594D02*
Y012224D01*
X013346Y011594D02*
Y012224D01*
X013032Y011594D02*
X013346D01*
X013032Y012224D02*
X013346D01*
X013071Y018661D02*
X013701D01*
X013071Y018346D02*
X013701D01*
X013071D02*
Y018661D01*
X013701Y018346D02*
Y018661D01*
X015138Y013425D02*
X015768D01*
X015138Y01374D02*
X015768D01*
Y013425D02*
Y01374D01*
X015138Y013425D02*
Y01374D01*
X022323Y006634D02*
Y006949D01*
X022953Y006634D02*
Y006949D01*
X022323D02*
X022953D01*
X022323Y006634D02*
X022953D01*
X007638Y003996D02*
X009094D01*
X007638Y006634D02*
X009094D01*
Y003996D02*
Y006634D01*
X007638Y003996D02*
Y006634D01*
D16*
X009813Y014547D02*
Y016358D01*
X011447Y014547D02*
Y016358D01*
X009813D02*
X011447D01*
X009813Y014547D02*
X011447D01*
X021624D02*
X023258D01*
X021624Y016358D02*
X023258D01*
Y014547D02*
Y016358D01*
X021624Y014547D02*
Y016358D01*
X000295Y027165D02*
X00935D01*
Y012205D02*
Y027165D01*
X000295Y012205D02*
X00935D01*
X000295D02*
Y027165D01*
X014337Y002943D02*
X021423D01*
Y000463D02*
Y002943D01*
Y010502D01*
X014337D02*
X021423D01*
X014337Y002943D02*
Y010502D01*
Y000463D02*
Y002943D01*
Y000463D02*
X021423D01*
D89*
X020242Y001939D02*
Y001677D01*
X020111Y001545D01*
X01998Y001677D01*
Y001939D01*
Y001742D01*
X020242D01*
X019849Y001939D02*
Y001545D01*
X019586Y001939D01*
Y001545D01*
X019455D02*
X019193D01*
X019324D01*
Y001939D01*
X018799Y001545D02*
X019061D01*
Y001939D01*
X018799D01*
X019061Y001742D02*
X01893D01*
X018668Y001939D02*
Y001545D01*
X018405Y001939D01*
Y001545D01*
X018274Y001939D02*
Y001545D01*
X018012Y001939D01*
Y001545D01*
X017881Y001939D02*
Y001677D01*
X017749Y001545D01*
X017618Y001677D01*
Y001939D01*
Y001742D01*
X017881D01*
M02*
