G04*
G04 #@! TF.GenerationSoftware,Altium Limited,Altium Designer,21.3.2 (30)*
G04*
G04 Layer_Color=32768*
%FSTAX24Y24*%
%MOIN*%
G70*
G04*
G04 #@! TF.SameCoordinates,FE128C83-0F67-4140-98D3-9062B7FE4468*
G04*
G04*
G04 #@! TF.FilePolarity,Positive*
G04*
G01*
G75*
%ADD12C,0.0100*%
%ADD14C,0.0039*%
%ADD89C,0.0118*%
%ADD91C,0.0020*%
D12*
X007185Y029272D02*
X011526D01*
Y03063D01*
X007185D02*
X011526D01*
X007185Y029272D02*
Y03063D01*
D14*
X014835Y019126D02*
Y01985D01*
X01308D02*
X014835D01*
X01308Y019126D02*
Y019848D01*
X01308Y019126D02*
X014835D01*
X020248Y019224D02*
Y019949D01*
X018494D02*
X020248D01*
X018494Y019224D02*
Y019947D01*
X018494Y019224D02*
X020248D01*
X008366Y005118D02*
Y005512D01*
X008169Y005315D02*
X008563D01*
X006654Y003898D02*
X010079D01*
X006654Y006732D02*
X010079D01*
Y003898D02*
Y006732D01*
X006654Y003898D02*
Y006732D01*
D89*
X00855Y02968D02*
X008682D01*
X008616D01*
Y030074D01*
X00855Y030008D01*
X008878D02*
X008944Y030074D01*
X009075D01*
X009141Y030008D01*
Y029746D01*
X009075Y02968D01*
X008944D01*
X008878Y029746D01*
Y030008D01*
X009534D02*
X009469Y030074D01*
X009338D01*
X009272Y030008D01*
Y029943D01*
X009338Y029877D01*
X009469D01*
X009534Y029812D01*
Y029746D01*
X009469Y02968D01*
X009338D01*
X009272Y029746D01*
X009862Y02968D02*
Y030074D01*
X009666Y029877D01*
X009928D01*
X010059Y030074D02*
X010321D01*
Y030008D01*
X010059Y029746D01*
Y02968D01*
X010453D02*
X010584D01*
X010518D01*
Y030074D01*
X010453Y030008D01*
X010781Y030074D02*
Y02968D01*
Y029812D01*
X011043Y030074D01*
X010846Y029877D01*
X011043Y02968D01*
D91*
X009715Y013797D02*
Y017108D01*
X011545Y013797D02*
Y017108D01*
X009715D02*
X011545D01*
X009715Y013797D02*
X011545D01*
X021526D02*
X023356D01*
X021526Y017108D02*
X023356D01*
Y013797D02*
Y017108D01*
X021526Y013797D02*
Y017108D01*
X000197Y027264D02*
X009449D01*
X000197Y012106D02*
Y027264D01*
Y012106D02*
X009449D01*
Y027264D01*
X021522Y000364D02*
Y00312D01*
X021718D01*
Y010797D01*
X014041D02*
X021718D01*
X014041Y00312D02*
Y010797D01*
Y00312D02*
X014238D01*
Y000364D02*
Y00312D01*
Y000364D02*
X021522D01*
M02*
